<svg width="8" height="12" viewBox="0 0 8 12" fill="none" xmlns="http://www.w3.org/2000/svg">
<g clip-path="url(#clip0_4_16635)">
<path d="M4.00699 6.66699C5.12163 6.66699 6.23628 6.66699 7.35282 6.66699C7.70981 6.66699 7.94148 6.83354 7.99464 7.12713C8.02693 7.30398 7.94907 7.44992 7.82375 7.58041C7.47815 7.94268 7.13445 8.30668 6.79075 8.66895C6.0255 9.47592 5.26025 10.2829 4.495 11.0916C4.19308 11.4109 3.80761 11.4126 3.50758 11.095C2.39863 9.92748 1.29728 8.75652 0.182636 7.59586C-0.161062 7.23702 0.0345229 6.82667 0.340243 6.7185C0.442783 6.68244 0.562413 6.67043 0.672548 6.66871C1.7834 6.66699 2.89424 6.66699 4.00699 6.66699Z" fill="#474747"/>
</g>
<g clip-path="url(#clip1_4_16635)">
<path d="M3.99301 4.66699C2.87837 4.66699 1.76372 4.66699 0.647178 4.66699C0.290187 4.66699 0.0585241 4.50045 0.0053554 4.20685C-0.026926 4.03 0.0509282 3.88406 0.176255 3.75357C0.521852 3.3913 0.86555 3.02731 1.20925 2.66503C1.9745 1.85806 2.73975 1.0511 3.505 0.242416C3.80692 -0.0769366 4.19239 -0.0786537 4.49242 0.238982C5.60137 1.40651 6.70272 2.57747 7.81736 3.73812C8.16106 4.09697 7.96548 4.50732 7.65976 4.61548C7.55722 4.65154 7.43759 4.66356 7.32745 4.66528C6.2166 4.66699 5.10576 4.66699 3.99301 4.66699Z" fill="#474747"/>
</g>
<defs>
<clipPath id="clip0_4_16635">
<rect width="8" height="4.66667" fill="white" transform="translate(0 6.66666)"/>
</clipPath>
<clipPath id="clip1_4_16635">
<rect width="8" height="4.66667" fill="white" transform="translate(8 4.66666) rotate(-180)"/>
</clipPath>
</defs>
</svg>
