<svg width="21" height="20" viewBox="0 0 21 20" fill="none" xmlns="http://www.w3.org/2000/svg">
<g clip-path="url(#clip0_4_17211)">
<path d="M0.5 4.33546C0.606206 3.99637 0.667626 3.63552 0.826296 3.3233C1.38292 2.22286 2.29655 1.63424 3.53263 1.56771C3.88196 1.54851 4.23257 1.56515 4.60365 1.56515C4.60365 1.31307 4.60237 1.08146 4.60365 0.848576C4.60749 0.352095 4.92866 0.00276674 5.38164 0.00148715C5.83461 -0.00107203 6.16091 0.348256 6.16603 0.842178C6.16859 1.07506 6.16603 1.30795 6.16603 1.55107H9.68362C9.68362 1.29131 9.67466 1.02772 9.6849 0.764123C9.70537 0.226695 10.2121 -0.125192 10.715 0.0437136C11.0234 0.14736 11.2319 0.427591 11.2422 0.769241C11.2498 1.0226 11.2434 1.27724 11.2434 1.54595H14.802C14.802 1.2862 14.7917 1.02132 14.8045 0.757725C14.8314 0.14736 15.4853 -0.200688 15.9971 0.121769C16.2351 0.271481 16.3554 0.495409 16.3618 0.77436C16.3682 1.02772 16.3631 1.28108 16.3631 1.56131C16.5921 1.56131 16.8109 1.56515 17.0297 1.56131C17.5211 1.54979 18.0035 1.5869 18.4706 1.75964C19.6363 2.19087 20.4782 3.31819 20.4962 4.56451C20.5192 6.08722 20.5064 7.61121 20.5026 9.13392C20.5013 9.58434 20.1558 9.91959 19.7246 9.91959C19.2857 9.91959 18.9453 9.57922 18.944 9.11473C18.9402 7.67007 18.944 6.22413 18.9415 4.77948C18.9415 4.11025 18.6663 3.59458 18.0573 3.29259C17.882 3.20558 17.6747 3.15184 17.4789 3.13904C17.1168 3.11473 16.7521 3.13264 16.3618 3.13264C16.3618 3.36809 16.3631 3.5997 16.3618 3.8313C16.358 4.3393 16.0317 4.69119 15.571 4.68607C15.118 4.68095 14.802 4.3329 14.7994 3.83258C14.7981 3.60609 14.7994 3.37833 14.7994 3.13776H11.2434C11.2434 3.35273 11.2434 3.56515 11.2434 3.77756C11.2434 4.3265 10.9376 4.68223 10.4667 4.68479C9.99456 4.68735 9.68234 4.33162 9.68106 3.78652C9.68106 3.57282 9.68106 3.35913 9.68106 3.1352H6.16347C6.16347 3.3924 6.17114 3.65728 6.16219 3.91959C6.14171 4.4583 5.63628 4.81019 5.1334 4.64256C4.81862 4.53763 4.61132 4.25229 4.60365 3.89784C4.59853 3.64576 4.60365 3.39368 4.60365 3.10321C4.14299 3.12625 3.69386 3.09938 3.26647 3.17999C2.56782 3.31179 2.10589 3.91959 2.06622 4.6528C2.06366 4.70526 2.06366 4.75645 2.06366 4.80891C2.06366 8.79355 2.06366 12.7769 2.06366 16.7616C2.06366 17.4385 2.32726 17.9721 2.94914 18.2638C3.18714 18.3751 3.47377 18.4263 3.73992 18.4289C5.66059 18.4429 7.58125 18.4378 9.50192 18.434C9.754 18.434 9.98049 18.4877 10.1609 18.672C10.5358 19.0533 10.4219 19.6893 9.9357 19.9209C9.87812 19.949 9.81798 19.9733 9.75912 19.9989H3.27415C3.24472 19.9874 3.21785 19.9682 3.18714 19.9644C2.08797 19.7878 1.28695 19.1979 0.808381 18.1998C0.662508 17.8966 0.601088 17.5523 0.5 17.2261C0.5 12.9292 0.5 8.63233 0.5 4.33546Z" fill="#474747"/>
<path d="M15.3854 19.9998C14.9388 19.8898 14.4782 19.8181 14.0495 19.662C12.0214 18.9199 10.7354 16.6742 11.1142 14.5475C11.4481 12.6729 12.5204 11.3779 14.3221 10.7932C16.1749 10.1918 17.8499 10.6294 19.1986 12.0382C20.4398 13.3357 20.8147 14.916 20.2901 16.6268C19.7309 18.4528 18.4513 19.5507 16.5678 19.9243C16.4347 19.9512 16.3003 19.9742 16.1673 19.9985H15.3854V19.9998ZM18.9401 15.2692C18.9376 13.5277 17.5083 12.1035 15.768 12.1086C14.0329 12.1137 12.6164 13.5315 12.6126 15.2653C12.6087 17.0056 14.0329 18.4336 15.7757 18.4349C17.5172 18.4349 18.944 17.0094 18.9414 15.2679L18.9401 15.2692Z" fill="#474747"/>
<path d="M6.16342 8.20472C6.16342 8.63466 5.80642 8.98654 5.37647 8.98271C4.94653 8.97887 4.5972 8.62058 4.6036 8.19064C4.61 7.76838 4.95933 7.42417 5.38031 7.42289C5.81026 7.42161 6.1647 7.77477 6.16342 8.20472Z" fill="#474747"/>
<path d="M8.78787 8.98272C8.35792 8.98528 8.0022 8.63339 8.0022 8.20345C8.0022 7.7735 8.35664 7.42034 8.78659 7.4229C9.20885 7.42546 9.5569 7.77094 9.56202 8.19321C9.56714 8.62315 9.21653 8.98016 8.78787 8.98272Z" fill="#474747"/>
<path d="M12.9619 8.20727C12.9594 8.63721 12.6024 8.98782 12.1737 8.9827C11.7438 8.97758 11.3944 8.61802 11.4021 8.18936C11.4098 7.76709 11.7591 7.42416 12.1814 7.42288C12.6113 7.42288 12.9645 7.77733 12.9619 8.20727Z" fill="#474747"/>
<path d="M15.5826 8.98261C15.1526 8.98261 14.7995 8.62816 14.802 8.19822C14.8046 7.76827 15.1616 7.41767 15.5902 7.42278C16.0125 7.4279 16.358 7.77467 16.3618 8.19694C16.3657 8.62688 16.0125 8.98261 15.5826 8.98261Z" fill="#474747"/>
<path d="M5.37654 10.8214C5.80648 10.8175 6.16221 11.1681 6.16477 11.5981C6.16605 12.028 5.81288 12.3825 5.38294 12.3812C4.96067 12.3812 4.61134 12.0357 4.60494 11.6134C4.59855 11.1848 4.94787 10.8252 5.37782 10.8214H5.37654Z" fill="#474747"/>
<path d="M8.78793 12.3812C8.35799 12.3837 8.00354 12.0305 8.00354 11.6006C8.00354 11.1707 8.35927 10.8188 8.78921 10.8213C9.21147 10.8239 9.55952 11.1694 9.56336 11.5916C9.56848 12.0216 9.21787 12.3786 8.78793 12.3812Z" fill="#474747"/>
<path d="M6.16341 15.0161C6.15445 15.4447 5.79105 15.7915 5.36238 15.7787C4.93244 15.7672 4.58951 15.4025 4.60487 14.9725C4.61894 14.5503 4.97467 14.2125 5.39565 14.2189C5.8256 14.2253 6.17364 14.5861 6.16341 15.0148V15.0161Z" fill="#474747"/>
<path d="M8.7841 15.7796C8.35416 15.7796 8.00099 15.4252 8.00355 14.9952C8.00611 14.5653 8.36312 14.2147 8.79178 14.2198C9.21405 14.2249 9.55954 14.5717 9.56337 14.994C9.56721 15.4239 9.21405 15.7796 8.7841 15.7796Z" fill="#474747"/>
<path d="M16.5563 14.4947C16.7112 14.4947 16.834 14.487 16.9569 14.4959C17.3778 14.5241 17.6965 14.8696 17.6901 15.2842C17.6837 15.6911 17.3676 16.0327 16.953 16.0481C16.5436 16.0634 16.1341 16.0634 15.7246 16.0481C15.3254 16.0314 15.0119 15.7154 15.0016 15.3149C14.9876 14.7557 14.9876 14.1965 15.0016 13.6386C15.0119 13.2151 15.3612 12.8939 15.7758 12.8926C16.1904 12.8926 16.5346 13.2138 16.5538 13.6361C16.5666 13.9137 16.5563 14.1927 16.5563 14.4959V14.4947Z" fill="#474747"/>
</g>
<defs>
<clipPath id="clip0_4_17211">
<rect width="20.0205" height="20" fill="white" transform="translate(0.5 3.05176e-05)"/>
</clipPath>
</defs>
</svg>
