<svg width="22" height="22" viewBox="0 0 22 22" fill="none" xmlns="http://www.w3.org/2000/svg">
<g clip-path="url(#clip0_4_16607)">
<path d="M2.75 6.32674C2.83762 6.04699 2.88829 5.74929 3.01919 5.49171C3.47841 4.58384 4.23215 4.09824 5.25192 4.04334C5.54012 4.02751 5.82937 4.04123 6.13551 4.04123C6.13551 3.83327 6.13445 3.64219 6.13551 3.45006C6.13868 3.04047 6.40365 2.75227 6.77735 2.75121C7.15106 2.7491 7.42025 3.0373 7.42447 3.44478C7.42658 3.63691 7.42447 3.82904 7.42447 4.02962H10.3265C10.3265 3.81532 10.3191 3.59785 10.3275 3.38039C10.3444 2.93701 10.7625 2.6467 11.1774 2.78605C11.4318 2.87156 11.6038 3.10275 11.6123 3.38461C11.6186 3.59363 11.6133 3.80371 11.6133 4.0254H14.5491C14.5491 3.8111 14.5407 3.59258 14.5512 3.37511C14.5734 2.87156 15.1129 2.58442 15.5351 2.85045C15.7315 2.97396 15.8307 3.1587 15.836 3.38883C15.8413 3.59786 15.837 3.80688 15.837 4.03807C16.026 4.03807 16.2065 4.04123 16.387 4.03807C16.7924 4.02857 17.1904 4.05918 17.5757 4.20169C18.5374 4.55745 19.2321 5.48749 19.2468 6.5157C19.2658 7.77194 19.2553 9.02924 19.2521 10.2855C19.2511 10.6571 18.966 10.9337 18.6103 10.9337C18.2482 10.9337 17.9674 10.6528 17.9663 10.2696C17.9631 9.0778 17.9663 7.8849 17.9642 6.69306C17.9642 6.14094 17.7372 5.71551 17.2347 5.46638C17.0901 5.39459 16.9191 5.35025 16.7576 5.3397C16.4588 5.31964 16.158 5.33442 15.836 5.33442C15.836 5.52866 15.837 5.71974 15.836 5.91081C15.8328 6.32991 15.5636 6.62022 15.1836 6.61599C14.8099 6.61177 14.5491 6.32463 14.547 5.91187C14.546 5.72501 14.547 5.53711 14.547 5.33864H11.6133C11.6133 5.51599 11.6133 5.69123 11.6133 5.86647C11.6133 6.31935 11.361 6.61283 10.9726 6.61494C10.583 6.61705 10.3254 6.32357 10.3244 5.87386C10.3244 5.69757 10.3244 5.52127 10.3244 5.33653H7.42236C7.42236 5.54872 7.42869 5.76724 7.42131 5.98365C7.40441 6.42809 6.98743 6.71839 6.57255 6.5801C6.31286 6.49354 6.14184 6.25812 6.13551 5.96571C6.13129 5.75774 6.13551 5.54977 6.13551 5.31014C5.75547 5.32914 5.38493 5.30697 5.03234 5.37348C4.45595 5.48221 4.07486 5.98365 4.04213 6.58855C4.04002 6.63183 4.04002 6.67405 4.04002 6.71734C4.04002 10.0047 4.04002 13.2909 4.04002 16.5783C4.04002 17.1367 4.25749 17.5769 4.77054 17.8176C4.96689 17.9095 5.20336 17.9517 5.42294 17.9538C7.00749 17.9654 8.59203 17.9612 10.1766 17.958C10.3845 17.958 10.5714 18.0024 10.7202 18.1544C11.0296 18.469 10.9356 18.9936 10.5345 19.1847C10.4869 19.2079 10.4373 19.228 10.3888 19.2491H5.03868C5.0144 19.2396 4.99223 19.2238 4.96689 19.2206C4.06008 19.0749 3.39923 18.5883 3.00441 17.7648C2.88407 17.5146 2.8334 17.2307 2.75 16.9615C2.75 13.4166 2.75 9.87166 2.75 6.32674Z" fill="white" stroke="#474747" stroke-width="0.275"/>
<path d="M15.0306 19.2501C14.6621 19.1593 14.2821 19.1002 13.9285 18.9714C12.2552 18.3591 11.1943 16.5064 11.5068 14.7519C11.7823 13.2053 12.6669 12.137 14.1533 11.6546C15.6819 11.1584 17.0638 11.5194 18.1764 12.6817C19.2004 13.7522 19.5097 15.0559 19.0769 16.4673C18.6156 17.9738 17.5599 18.8795 16.006 19.1878C15.8962 19.2099 15.7854 19.2289 15.6756 19.249H15.0306V19.2501ZM17.9632 15.3473C17.9611 13.9105 16.7819 12.7356 15.3462 12.7398C13.9147 12.744 12.7461 13.9137 12.7429 15.3441C12.7398 16.7798 13.9147 17.9579 15.3525 17.959C16.7893 17.959 17.9664 16.783 17.9643 15.3462L17.9632 15.3473Z" fill="white" stroke="#474747" stroke-width="0.275"/>
<path d="M7.42242 9.51898C7.42242 9.87368 7.12789 10.164 6.77319 10.1608C6.41849 10.1577 6.13029 9.86207 6.13557 9.50736C6.14085 9.15899 6.42904 8.87502 6.77636 8.87397C7.13106 8.87291 7.42348 9.16427 7.42242 9.51898Z" fill="white"/>
<path d="M9.58751 10.1608C9.2328 10.1629 8.93933 9.87263 8.93933 9.51793C8.93933 9.16323 9.23175 8.87186 9.58645 8.87397C9.93482 8.87609 10.222 9.16111 10.2262 9.50948C10.2304 9.86419 9.94115 10.1587 9.58751 10.1608Z" fill="white"/>
<path d="M13.0311 9.52108C13.029 9.87579 12.7345 10.165 12.3808 10.1608C12.0261 10.1566 11.7379 9.85995 11.7442 9.5063C11.7506 9.15794 12.0388 8.87502 12.3871 8.87396C12.7418 8.87396 13.0332 9.16638 13.0311 9.52108Z" fill="white"/>
<path d="M15.193 10.1609C14.8383 10.1609 14.547 9.86844 14.5491 9.51374C14.5512 9.15904 14.8457 8.86979 15.1994 8.87401C15.5477 8.87823 15.8328 9.16432 15.8359 9.51268C15.8391 9.86739 15.5477 10.1609 15.193 10.1609Z" fill="white"/>
<path d="M6.77311 11.6777C7.12781 11.6745 7.42129 11.9638 7.4234 12.3185C7.42445 12.6732 7.13309 12.9656 6.77839 12.9646C6.43002 12.9646 6.14182 12.6795 6.13655 12.3312C6.13127 11.9775 6.41946 11.6809 6.77417 11.6777H6.77311Z" fill="white"/>
<path d="M9.58755 12.9645C9.23285 12.9666 8.94043 12.6753 8.94043 12.3206C8.94043 11.9659 9.2339 11.6756 9.58861 11.6777C9.93697 11.6798 10.2241 11.9648 10.2273 12.3132C10.2315 12.6679 9.94225 12.9624 9.58755 12.9645Z" fill="white"/>
<path d="M7.42244 15.1384C7.41505 15.492 7.11524 15.7781 6.76159 15.7676C6.40689 15.7581 6.12397 15.4572 6.13664 15.1025C6.14825 14.7541 6.44173 14.4754 6.78904 14.4807C7.14374 14.486 7.43088 14.7837 7.42244 15.1373V15.1384Z" fill="white"/>
<path d="M9.58439 15.7685C9.22969 15.7685 8.93833 15.476 8.94044 15.1213C8.94255 14.7666 9.23708 14.4774 9.59073 14.4816C9.9391 14.4858 10.2241 14.7719 10.2273 15.1203C10.2305 15.475 9.9391 15.7685 9.58439 15.7685Z" fill="white"/>
<path d="M15.5914 15.0717C15.7191 15.0717 15.8205 15.0654 15.9218 15.0727C16.2691 15.096 16.532 15.381 16.5267 15.723C16.5214 16.0587 16.2607 16.3406 15.9186 16.3533C15.5808 16.3659 15.243 16.3659 14.9052 16.3533C14.5758 16.3395 14.3172 16.0788 14.3088 15.7484C14.2971 15.287 14.2971 14.8257 14.3088 14.3655C14.3172 14.016 14.6054 13.7511 14.9474 13.75C15.2895 13.75 15.5734 14.015 15.5893 14.3633C15.5998 14.5924 15.5914 14.8226 15.5914 15.0727V15.0717Z" fill="white"/>
</g>
<defs>
<clipPath id="clip0_4_16607">
<rect width="16.5169" height="16.5" fill="white" transform="translate(2.75 2.75)"/>
</clipPath>
</defs>
</svg>
