<svg width="23" height="23" viewBox="0 0 23 23" fill="none" xmlns="http://www.w3.org/2000/svg">
<path d="M22.745 17.0294V17.6314C22.7315 17.6557 22.7153 17.68 22.7099 17.7043C22.4912 18.822 21.6759 19.5806 20.5501 19.667C19.5512 19.7453 18.555 19.1676 18.1771 18.1201C18.1258 17.9824 18.0475 17.9608 17.9206 17.9608C17.054 17.9662 16.1901 17.9635 15.3235 17.9608C14.7889 17.9608 14.546 17.7178 14.546 17.1887C14.546 16.2573 14.546 15.3286 14.546 14.3972C14.546 14.3216 14.546 14.246 14.546 14.165H12.3997V14.416C12.3997 15.504 12.4078 16.592 12.3943 17.68C12.3916 17.9392 12.4186 18.1201 12.7129 18.1687C12.7992 18.1822 12.8775 18.2496 12.9585 18.2955C13.9466 18.8679 14.3705 20.1044 13.9493 21.1842C13.5336 22.2479 12.3781 22.8743 11.2766 22.6313C10.2372 22.4018 9.47589 21.5352 9.4003 20.4985C9.32471 19.4537 9.94564 18.4926 10.9391 18.1093C10.9958 18.0877 11.0525 18.0607 11.0984 18.0418V14.1704H8.96564C8.96564 15.1828 8.96564 16.1763 8.96564 17.1698C8.96564 17.7259 8.72807 17.9608 8.16383 17.9608C7.31342 17.9608 6.4603 17.9662 5.60989 17.9581C5.44791 17.9581 5.37232 18.0067 5.31562 18.1579C4.97546 19.0758 4.06835 19.7021 3.08566 19.6724C2.15965 19.6427 1.45233 19.2134 1.02847 18.3873C0.604616 17.5612 0.661311 16.7324 1.19315 15.9711C1.7304 15.2017 2.49712 14.8588 3.42582 14.983C4.34373 15.1045 4.98356 15.6228 5.32372 16.4894C5.38042 16.6352 5.45061 16.6838 5.60179 16.6784C6.00135 16.6676 6.40361 16.6757 6.80317 16.6757H7.66438V14.1542C7.57529 14.1542 7.497 14.1542 7.4214 14.1542C6.76267 14.1542 6.10394 14.1758 5.44791 14.1461C5.00786 14.1272 4.5597 14.0867 4.13585 13.976C1.58191 13.3308 0.105169 10.4799 1.03387 8.02312C1.55762 6.63546 2.52682 5.69326 3.93877 5.21811C4.06295 5.17491 4.12235 5.12092 4.13045 4.98323C4.13855 4.80505 4.16014 4.62687 4.20064 4.45139C4.6083 2.62098 5.71248 1.43041 7.5051 0.890462C7.82096 0.795972 8.15843 0.771674 8.48779 0.71228C8.63088 0.71228 8.77396 0.71228 8.91705 0.71228C8.94405 0.720379 8.97104 0.736578 8.99804 0.739277C10.0158 0.80947 10.9148 1.17393 11.687 1.84076C11.7922 1.93255 11.8624 1.88126 11.9488 1.83536C12.918 1.32242 13.952 1.10914 15.04 1.26842C17.2538 1.59239 18.7062 2.84236 19.4216 4.95624C19.4783 5.12362 19.5539 5.20731 19.7186 5.2694C20.9929 5.74455 21.9027 6.61116 22.4048 7.87463C22.5695 8.28769 22.637 8.73854 22.7477 9.1705V9.98581C22.6667 10.3314 22.6181 10.6904 22.502 11.0225C21.8217 12.9636 20.1479 14.1461 18.0907 14.1542C17.4185 14.1569 16.7462 14.1542 16.074 14.1542C15.9984 14.1542 15.9228 14.1542 15.8499 14.1542V16.6757C16.5465 16.6757 17.2241 16.6703 17.9017 16.6811C18.0664 16.6811 18.1366 16.6244 18.1906 16.4759C18.5334 15.5553 19.4028 14.9641 20.3962 14.9614C21.3519 14.9587 22.2267 15.5553 22.5749 16.457C22.6451 16.6433 22.6883 16.8377 22.745 17.0294ZM11.7302 12.8691C13.8278 12.8691 15.9228 12.8691 18.0205 12.8691C18.2338 12.8691 18.4498 12.8583 18.6603 12.8259C20.1857 12.6045 21.3735 11.2979 21.4491 9.76443C21.5274 8.1797 20.4826 6.74615 18.9654 6.38709C18.5685 6.2926 18.3526 6.08472 18.2716 5.67976C17.7235 2.91795 14.5352 1.61399 12.1972 3.19062C11.7383 3.49839 11.4899 3.47139 11.1092 3.07183C10.14 2.04864 8.68217 1.73547 7.40791 2.27272C6.14444 2.80726 5.35072 4.06803 5.39932 5.46378C5.42091 6.04962 5.27243 6.2359 4.70279 6.34119C2.91827 6.67596 1.7196 8.50097 2.12186 10.272C2.47282 11.8243 3.77678 12.8637 5.39392 12.8691C7.5051 12.8745 9.61627 12.8691 11.7275 12.8691H11.7302ZM4.19254 17.3155C4.19254 16.7324 3.71199 16.2546 3.12885 16.2519C2.53221 16.2492 2.04627 16.7297 2.04897 17.3236C2.04897 17.9014 2.53221 18.3873 3.11265 18.3954C3.69579 18.4035 4.19524 17.9068 4.19254 17.3182V17.3155ZM20.3935 16.2519C19.7969 16.2465 19.311 16.7297 19.311 17.3209C19.311 17.8987 19.7915 18.3846 20.3747 18.3927C20.9578 18.4008 21.4572 17.9041 21.4572 17.3182C21.4572 16.7351 20.9794 16.2573 20.3935 16.2519ZM11.7545 19.2566C11.1686 19.2566 10.6881 19.7264 10.68 20.3095C10.6719 20.8954 11.1632 21.3948 11.7491 21.3975C12.3349 21.3975 12.8289 20.9008 12.8235 20.3149C12.8181 19.7318 12.3403 19.2566 11.7545 19.2566Z" fill="white"/>
</svg>
