<svg width="23" height="23" viewBox="0 0 23 23" fill="none" xmlns="http://www.w3.org/2000/svg">
<g clip-path="url(#clip0_779_244)">
<path d="M0.625 21.042C0.625 20.8977 0.625 20.758 0.625 20.6137C0.927646 19.729 1.23495 18.849 1.53294 17.9643C1.55622 17.8945 1.53294 17.7967 1.505 17.7222C1.23029 17.0983 1.03474 16.4465 0.96955 15.7667C0.727434 13.2896 1.5795 11.2549 3.49315 9.66255C3.56299 9.60667 3.61421 9.49493 3.62352 9.4018C3.69336 8.87101 3.71198 8.3309 3.81442 7.80942C4.81082 2.82741 9.80214 -0.445815 14.7981 0.601804C20.432 1.77979 23.668 7.71165 21.5588 13.0568C21.3446 13.5969 21.3306 14.0393 21.5355 14.5701C21.9359 15.5991 22.2665 16.656 22.625 17.6989V18.1692C22.625 18.1692 22.6017 18.1925 22.6017 18.2018C22.462 19.0166 21.5634 19.6219 20.5763 19.2541C19.4775 18.8443 18.36 18.4905 17.2565 18.104C17.0796 18.0435 16.9399 18.0435 16.7676 18.1227C15.6921 18.6209 14.556 18.8956 13.3734 18.9421C13.2197 18.9468 13.1266 19.0027 13.0381 19.1237C12.484 19.8407 11.8182 20.4274 11.022 20.8604C9.09442 21.9127 7.10161 22.0105 5.07156 21.191C4.88066 21.1119 4.7177 21.1025 4.52214 21.1724C3.79579 21.4331 3.06479 21.6752 2.33378 21.9313C1.92405 22.0757 1.53294 22.0617 1.16511 21.8196C0.881085 21.6333 0.736746 21.354 0.629656 21.042H0.625ZM12.7774 1.72392C12.6051 1.73789 12.2745 1.7472 11.9486 1.78445C10.6961 1.92413 9.53675 2.34318 8.5031 3.0509C6.56151 4.38254 5.37886 6.21239 5.025 8.5544C4.87601 9.54149 4.91791 10.5239 5.15071 11.4924C5.48595 12.9032 6.16109 14.1417 7.17146 15.1893C8.52172 16.5815 10.1607 17.3963 12.0883 17.6105C13.6434 17.7828 15.124 17.5034 16.5209 16.7957C16.7909 16.6606 17.0424 16.6513 17.3217 16.7491C18.5416 17.1775 19.7662 17.5919 20.9907 18.0062C21.0792 18.0342 21.177 18.0202 21.2747 18.0295C21.2654 17.9364 21.2747 17.834 21.2515 17.7455C20.8324 16.5116 20.404 15.2731 19.9757 14.0439C19.8919 13.8018 19.8965 13.5737 20.0129 13.3409C20.5111 12.377 20.7998 11.3527 20.8743 10.2725C20.9814 8.70805 20.6601 7.23207 19.8965 5.86318C19.0445 4.33133 17.8106 3.19059 16.2136 2.45493C15.1753 1.97535 14.0764 1.73789 12.7727 1.73789L12.7774 1.72392ZM11.4876 18.8862C7.27389 17.9597 4.69442 15.4268 3.71664 11.2177C3.5304 11.4551 3.33484 11.6786 3.17188 11.9254C2.53865 12.8566 2.22669 13.8903 2.23135 15.0124C2.23601 15.8365 2.41294 16.628 2.79008 17.3637C2.94373 17.6617 2.94373 17.9364 2.82733 18.2437C2.57124 18.9328 2.34775 19.6312 2.10564 20.325C2.07304 20.4228 2.04045 20.5205 1.99855 20.6509C2.82733 20.3669 3.61886 20.1108 4.40108 19.8221C4.7177 19.7057 4.99706 19.715 5.30437 19.864C6.53823 20.46 7.82331 20.5764 9.14563 20.2179C10.0396 19.9758 10.8125 19.5241 11.483 18.8816L11.4876 18.8862Z" fill="white"/>
<path d="M12.9124 8.90807C14.1882 8.90807 15.4593 8.90807 16.7351 8.90807C17.1774 8.90807 17.4754 9.17812 17.4707 9.56923C17.4707 9.87654 17.2612 10.1373 16.9586 10.1978C16.8701 10.2164 16.7723 10.2211 16.6838 10.2211C14.1742 10.2211 11.6599 10.2211 9.1503 10.2211C8.83368 10.2211 8.56829 10.1326 8.4286 9.82532C8.22839 9.38765 8.54501 8.91738 9.05718 8.90807C9.49485 8.89876 9.92786 8.90807 10.3655 8.90807C11.2176 8.90807 12.0697 8.90807 12.9217 8.90807H12.9124Z" fill="white"/>
<path d="M12.9171 7.52992C11.6366 7.52992 10.3562 7.52992 9.0758 7.52992C8.57759 7.52992 8.25632 7.12018 8.40532 6.6732C8.48447 6.42643 8.6614 6.28209 8.91283 6.24018C9.01992 6.22156 9.12701 6.22156 9.2341 6.22156C11.6972 6.22156 14.1556 6.22156 16.6187 6.22156C16.7118 6.22156 16.8049 6.22156 16.898 6.23553C17.2426 6.27743 17.48 6.55214 17.4754 6.89203C17.4707 7.22727 17.21 7.50198 16.8701 7.52526C16.6931 7.53923 16.5116 7.52992 16.3346 7.52992C15.1985 7.52992 14.0578 7.52992 12.9217 7.52992H12.9171Z" fill="white"/>
<path d="M11.3899 12.903C10.603 12.903 9.81614 12.9077 9.02926 12.903C8.54503 12.8984 8.23307 12.4421 8.41932 12.0091C8.54037 11.7297 8.76387 11.604 9.06651 11.604C9.87667 11.604 10.6822 11.604 11.4923 11.604C12.2652 11.604 13.0382 11.5993 13.8111 11.604C14.3232 11.6087 14.6305 12.1162 14.3931 12.5585C14.2627 12.8053 14.0485 12.903 13.7738 12.903C12.9776 12.903 12.1861 12.903 11.3899 12.903Z" fill="white"/>
</g>
<defs>
<clipPath id="clip0_779_244">
<rect width="22" height="21.6182" fill="white" transform="translate(0.625 0.406128)"/>
</clipPath>
</defs>
</svg>
