<svg width="8" height="12" viewBox="0 0 8 12" fill="none" xmlns="http://www.w3.org/2000/svg">
<g clip-path="url(#clip0_4_16918)">
<path d="M4.00699 7.00037C5.12163 7.00037 6.23628 7.00037 7.35282 7.00037C7.70981 7.00037 7.94148 7.16691 7.99464 7.46051C8.02693 7.63735 7.94907 7.78329 7.82375 7.91378C7.47815 8.27606 7.13445 8.64005 6.79075 9.00233C6.0255 9.80929 5.26025 10.6163 4.495 11.4249C4.19308 11.7443 3.80761 11.746 3.50758 11.4284C2.39863 10.2609 1.29728 9.08989 0.182636 7.92924C-0.161062 7.57039 0.0345229 7.16004 0.340243 7.05187C0.442783 7.01582 0.562413 7.0038 0.672548 7.00208C1.7834 7.00037 2.89424 7.00037 4.00699 7.00037Z" fill="white"/>
</g>
<g clip-path="url(#clip1_4_16918)">
<path d="M3.99301 5.00037C2.87837 5.00037 1.76372 5.00037 0.647178 5.00037C0.290187 5.00037 0.0585241 4.83382 0.0053554 4.54022C-0.026926 4.36338 0.0509282 4.21744 0.176255 4.08695C0.521852 3.72467 0.86555 3.36068 1.20925 2.9984C1.9745 2.19144 2.73975 1.38447 3.505 0.57579C3.80692 0.256437 4.19239 0.25472 4.49242 0.572356C5.60137 1.73988 6.70272 2.91084 7.81736 4.0715C8.16106 4.43034 7.96548 4.84069 7.65976 4.94886C7.55722 4.98491 7.43759 4.99693 7.32745 4.99865C6.2166 5.00037 5.10576 5.00037 3.99301 5.00037Z" fill="white"/>
</g>
<defs>
<clipPath id="clip0_4_16918">
<rect width="8" height="4.66667" fill="white" transform="translate(0 7)"/>
</clipPath>
<clipPath id="clip1_4_16918">
<rect width="8" height="4.66667" fill="white" transform="translate(8 5) rotate(-180)"/>
</clipPath>
</defs>
</svg>
