<svg width="23" height="20" viewBox="0 0 23 20" fill="none" xmlns="http://www.w3.org/2000/svg">
<g clip-path="url(#clip0_4_16519)">
<path d="M22.5 6.03863V17.5824C22.4864 17.6297 22.4675 17.6744 22.4593 17.7217C22.1991 19.0724 21.0685 19.9974 19.6397 19.9974C14.0466 20.0026 8.45072 20.0026 2.85757 19.9974C1.22816 19.9947 0 18.7886 0 17.2119C0 13.6198 0 10.0302 0 6.43805C0 4.82985 1.22003 3.64735 2.88469 3.6421C3.71159 3.63947 4.5385 3.6421 5.36812 3.6421C5.44674 3.6421 5.52536 3.6421 5.62568 3.6421C5.62568 3.3583 5.62568 3.09815 5.62568 2.83537C5.62568 1.19038 6.8457 0.00262778 8.5429 0C10.3512 0 12.1596 0 13.9679 0C14.1794 0 14.3936 0.0157666 14.5997 0.0551833C15.9525 0.325844 16.8689 1.41637 16.8743 2.75654C16.8743 3.04559 16.8743 3.33202 16.8743 3.63684C16.9828 3.63684 17.0641 3.63684 17.1427 3.63684C18.013 3.63684 18.886 3.62633 19.7563 3.6421C20.9953 3.66312 22.0608 4.47247 22.3943 5.62344C22.4322 5.76008 22.4648 5.89673 22.5 6.03337V6.03863ZM20.6212 9.50729C20.5805 9.50729 20.5642 9.50466 20.5507 9.50729C18.4278 10.2536 16.3023 10.9999 14.1821 11.754C14.1252 11.7751 14.071 11.8749 14.0656 11.9406C14.052 12.2244 14.0655 12.5082 14.0574 12.792C14.0303 13.6776 13.3362 14.4475 12.4253 14.5132C11.6689 14.5684 10.9016 14.5684 10.1425 14.5237C9.23696 14.4685 8.5673 13.8195 8.45343 12.947C8.41276 12.6396 8.42632 12.3216 8.43987 12.0116C8.44801 11.8381 8.38565 11.7672 8.22027 11.712C6.48783 11.1076 4.75539 10.4953 3.02295 9.88569C2.64881 9.7543 2.27196 9.62554 1.88697 9.49152C1.87884 9.54408 1.87342 9.57299 1.87342 9.60189C1.87342 12.164 1.87342 14.7261 1.87884 17.2908C1.87884 17.4379 1.93035 17.6035 2.00627 17.7322C2.20147 18.066 2.52139 18.1842 2.9118 18.1842C8.44258 18.1816 13.9707 18.1763 19.5014 18.1895C20.1304 18.1895 20.6293 17.8321 20.6239 17.1042C20.6022 14.6551 20.6157 12.206 20.6157 9.75693C20.6157 9.68073 20.6157 9.60189 20.6157 9.50992L20.6212 9.50729ZM13.7836 9.95401C14.3556 9.7543 14.9169 9.55459 15.4808 9.35751C17.1292 8.77677 18.7776 8.19603 20.426 7.61529C20.529 7.5785 20.6293 7.56274 20.6266 7.41295C20.6157 7.04507 20.6293 6.67455 20.6184 6.30666C20.6049 5.93089 20.3446 5.60767 19.9759 5.50256C19.8458 5.46577 19.7021 5.45526 19.5638 5.45526C14.0195 5.45526 8.47783 5.45526 2.93349 5.45526C2.89011 5.45526 2.84673 5.45526 2.80064 5.45526C2.2584 5.48679 1.8924 5.85206 1.88155 6.37761C1.87613 6.70345 1.88969 7.03193 1.87613 7.35777C1.87071 7.50493 1.92222 7.56537 2.0632 7.61529C3.63026 8.16187 5.19731 8.71633 6.76166 9.26816C7.41234 9.49678 8.06302 9.7254 8.71912 9.95401C9.16918 9.30495 9.79546 9.05794 10.5736 9.0921C11.0562 9.11312 11.5415 9.10787 12.024 9.0921C12.7642 9.07108 13.3471 9.33911 13.7836 9.95401ZM7.51807 3.62896H14.9928C14.9928 3.30574 15.0036 2.99304 14.9928 2.68296C14.9738 2.20208 14.5834 1.83681 14.0845 1.82105C13.9517 1.81579 13.8215 1.82105 13.6887 1.82105C11.9535 1.82105 10.2211 1.82105 8.48596 1.82105C7.99253 1.82105 7.5723 2.12324 7.52621 2.55683C7.48825 2.90632 7.51807 3.26107 7.51807 3.62896ZM10.3296 12.7105H12.1677V10.9158H10.3296V12.7105Z" fill="#474747" stroke="white" stroke-width="0.5"/>
</g>
<defs>
<clipPath id="clip0_4_16519">
<rect width="22.5" height="20" fill="white"/>
</clipPath>
</defs>
</svg>
