<svg width="23" height="23" viewBox="0 0 23 23" fill="none" xmlns="http://www.w3.org/2000/svg">
<g clip-path="url(#clip0_779_264)">
<path d="M12.0187 1.02469C12.2865 1.02469 12.5544 1.01944 12.8196 1.02469C13.3369 1.0352 13.7308 1.43171 13.7255 1.93327C13.7203 2.40856 13.3133 2.81032 12.8117 2.80507C11.8086 2.79194 10.8108 2.81558 9.8234 3.03353C6.28103 3.80818 3.42402 6.81223 2.83844 10.394C2.02966 15.3307 5.08886 19.8526 9.97308 20.9371C14.9781 22.0505 20.0724 18.5921 20.8943 13.5294C21.0597 12.5026 21.0702 11.4785 20.8996 10.4544C20.7814 9.73489 21.1569 9.21758 21.7924 9.21496C22.2414 9.21496 22.6274 9.52219 22.7088 9.96597C23.8012 15.9846 19.9358 21.6277 14.08 22.7857C7.99576 23.9858 2.2975 20.1677 1.09745 14.0834C-0.0579526 8.22761 3.71025 2.52147 9.60545 1.26891C10.3932 1.10085 11.2073 1.05621 12.0108 0.956421C12.0134 0.980054 12.0161 1.00106 12.0187 1.02469Z" fill="white"/>
<path d="M10.9762 16.4836C10.2252 16.3786 9.59233 16.0976 9.06189 15.596C8.61548 15.1733 8.34501 14.6638 8.24785 14.0599C8.15332 13.4585 8.47631 12.9675 9.0225 12.894C9.55556 12.8231 9.98621 13.1933 10.0597 13.792C10.0965 14.0861 10.2567 14.3015 10.5061 14.417C11.42 14.845 12.3601 14.8634 13.266 14.4223C13.849 14.1387 13.849 13.6187 13.3133 13.2432C12.922 12.9701 12.4703 12.894 12.0082 12.8913C11.3753 12.8861 10.753 12.8231 10.1516 12.6051C9.59233 12.4003 9.11703 12.0747 8.75728 11.5968C7.78832 10.3179 8.21372 8.63471 9.70524 7.89945C10.0939 7.70776 10.5245 7.59747 10.9788 7.43204C10.9788 7.1747 10.9788 6.86221 10.9788 6.54973C10.9841 5.96677 11.3648 5.55713 11.8953 5.55713C12.4257 5.55713 12.8065 5.97202 12.8091 6.55498C12.8091 6.85959 12.8091 7.16419 12.8091 7.43467C13.2529 7.59747 13.6888 7.71564 14.0827 7.91521C14.8862 8.32223 15.3877 8.98133 15.54 9.88465C15.6083 10.2917 15.5138 10.6488 15.1593 10.893C14.8599 11.1005 14.5369 11.1188 14.214 10.9455C13.933 10.7958 13.757 10.5569 13.736 10.2418C13.7124 9.85839 13.5155 9.60368 13.1898 9.47238C12.3312 9.12313 11.4594 9.12313 10.6007 9.47238C10.3092 9.59055 10.065 9.81113 10.0702 10.1551C10.0755 10.4991 10.3145 10.7328 10.6164 10.8221C11.0313 10.9429 11.4672 11.0269 11.8979 11.0532C12.5491 11.09 13.1925 11.1503 13.7964 11.4103C14.6499 11.7779 15.2486 12.3924 15.4875 13.3036C15.7659 14.3724 15.1855 15.5278 14.0958 16.0687C13.7597 16.2368 13.3842 16.3366 13.0192 16.439C12.859 16.4836 12.7986 16.5361 12.8065 16.7016C12.8196 16.9589 12.8143 17.2162 12.8065 17.4736C12.7933 17.9909 12.3968 18.3874 11.9005 18.3927C11.3911 18.3979 10.9867 17.9961 10.9762 17.4631C10.9709 17.148 10.9762 16.8355 10.9762 16.4915V16.4836Z" fill="white"/>
<path d="M18.8303 2.80512C18.3498 2.80512 17.9244 2.80512 17.499 2.80512C16.8924 2.80512 16.4775 2.42699 16.4775 1.88868C16.4775 1.34773 16.8924 0.974854 17.499 0.974854C18.6439 0.974854 19.7888 0.974854 20.9337 0.974854C21.6086 0.974854 21.9736 1.34248 21.9762 2.01997C21.9762 3.16488 21.9762 4.30978 21.9762 5.45468C21.9762 6.05864 21.5954 6.47617 21.0545 6.47354C20.5162 6.47092 20.1459 6.05339 20.1433 5.44418C20.1433 5.04241 20.1433 4.64327 20.1433 4.2415C20.1433 4.22312 20.138 4.20474 20.1249 4.13384C20.0356 4.21787 19.9621 4.28089 19.8938 4.34917C18.9826 5.26036 18.0793 6.17681 17.1629 7.08276C16.6246 7.61582 15.7843 7.41625 15.5899 6.71513C15.4902 6.35012 15.6031 6.04289 15.8683 5.7803C16.7821 4.87173 17.6933 3.96316 18.6045 3.05196C18.6702 2.98894 18.7279 2.91804 18.8303 2.80775V2.80512Z" fill="white"/>
</g>
<defs>
<clipPath id="clip0_779_264">
<rect width="22" height="22.0473" fill="white" transform="translate(0.890015 0.956421)"/>
</clipPath>
</defs>
</svg>
