<svg width="23" height="24" viewBox="0 0 23 24" fill="none" xmlns="http://www.w3.org/2000/svg">
<g clip-path="url(#clip0_779_216)">
<path d="M3.01997 4.22699C3.33685 4.88871 3.64441 5.54345 3.96362 6.19352C3.99158 6.24944 4.09177 6.3007 4.15701 6.30303C5.39891 6.31002 6.64314 6.31002 7.88504 6.30303C7.94795 6.30303 8.04348 6.22614 8.07144 6.1609C8.42327 5.3221 9.12461 4.89803 10.0217 5.01454C10.1824 5.03551 10.25 4.98425 10.3246 4.85376C10.9746 3.71672 11.6387 2.58433 12.2841 1.44495C12.4239 1.2003 12.6033 1.10244 12.8806 1.10244C14.7959 1.10943 16.7088 1.10943 18.6241 1.10244C18.913 1.10244 19.0947 1.20496 19.2369 1.4566C20.1829 3.11091 21.1358 4.76056 22.0958 6.40555C22.2403 6.65487 22.2472 6.8669 22.1005 7.11621C21.4527 8.22064 20.8143 9.32972 20.1759 10.4388C20.1293 10.518 20.0873 10.5996 20.0431 10.6765C20.6768 11.492 20.6162 12.41 19.9755 13.1486C20.2877 13.6892 20.6023 14.2367 20.9168 14.7843C21.3106 15.4647 21.6974 16.1497 22.1005 16.8254C22.2496 17.0747 22.2403 17.2867 22.0958 17.536C21.1335 19.188 20.1782 20.847 19.2276 22.506C19.0877 22.7483 18.906 22.8508 18.6287 22.8485C16.7135 22.8415 14.8005 22.8415 12.8852 22.8485C12.6056 22.8485 12.4239 22.7459 12.2864 22.5036C11.634 21.3573 10.97 20.2179 10.3152 19.0738C10.2453 18.9527 10.1824 18.8991 10.0287 18.9271C9.20383 19.0715 8.41395 18.6218 8.10406 17.8273C8.04115 17.6665 7.96193 17.6269 7.80116 17.6269C6.60353 17.6339 5.40823 17.6339 4.2106 17.6269C4.05449 17.6269 3.9776 17.6782 3.91003 17.8133C3.66771 18.3119 3.41374 18.8036 3.15977 19.3068C3.52791 19.6261 3.76091 20.0105 3.82382 20.4952C3.94731 21.4458 3.26462 22.3219 2.28135 22.4663C1.35401 22.6038 0.45695 21.9211 0.300839 20.9588C0.151718 20.0455 0.806452 19.1204 1.71982 18.9573C1.827 18.9387 1.93884 18.9038 2.03903 18.9247C2.27436 18.9737 2.37455 18.8641 2.46542 18.6661C2.6658 18.2327 2.88716 17.8086 3.11084 17.3869C3.1854 17.2471 3.17841 17.1446 3.10152 17.0095C2.1998 15.4553 1.30741 13.8966 0.40103 12.3448C0.251909 12.0885 0.244919 11.8718 0.39637 11.6131C1.30042 10.0613 2.19281 8.50024 3.09453 6.94612C3.17608 6.80632 3.19239 6.69914 3.1155 6.54769C2.8126 5.94188 2.52367 5.32676 2.23475 4.71396C2.17883 4.59513 2.11825 4.54853 1.97845 4.5462C1.01615 4.53222 0.256569 3.78895 0.209969 2.81733C0.168028 1.89465 0.899653 1.07914 1.85263 0.9906C2.75667 0.906719 3.60014 1.57776 3.74926 2.49812C3.84945 3.12489 3.61645 3.68177 3.01764 4.22466L3.01997 4.22699ZM15.7488 21.9258C16.6063 21.9258 17.4614 21.9258 18.3188 21.9258C18.4447 21.9258 18.5262 21.9002 18.5961 21.779C19.4466 20.2948 20.3017 18.8129 21.1615 17.3333C21.229 17.2192 21.229 17.1353 21.1615 17.0188C20.53 15.933 19.9009 14.8449 19.2765 13.7544C19.2089 13.6379 19.1437 13.6053 19.0039 13.6239C18.1464 13.7335 17.4381 13.3443 17.0839 12.5754C17.028 12.4543 16.9651 12.424 16.8416 12.424C15.623 12.4286 14.4044 12.424 13.1835 12.4333C13.0996 12.4333 12.9808 12.5032 12.9365 12.5754C12.3144 13.6309 11.7063 14.6957 11.0888 15.7536C11.0189 15.8724 11.0259 15.9446 11.1168 16.0541C11.6573 16.7252 11.6573 17.6199 11.1214 18.2933C11.0259 18.4121 11.0282 18.4913 11.1005 18.6148C11.7086 19.661 12.3144 20.7095 12.9132 21.7604C12.9831 21.8838 13.06 21.9304 13.2021 21.9281C14.0503 21.9211 14.9007 21.9258 15.7488 21.9258ZM6.0187 7.21873C5.40124 7.21873 4.78379 7.22106 4.16633 7.2164C4.03352 7.2164 3.95896 7.25834 3.89372 7.37484C3.04327 8.86139 2.18582 10.3433 1.3377 11.8298C1.29576 11.9021 1.29809 12.0395 1.3377 12.1141C2.18582 13.6006 3.04327 15.0825 3.89605 16.5691C3.96129 16.6832 4.03585 16.7275 4.16866 16.7275C5.38959 16.7229 6.60819 16.7229 7.82912 16.7275C7.97824 16.7275 8.03649 16.6763 8.09008 16.5388C8.39997 15.7466 9.18985 15.2969 10.0356 15.425C10.1568 15.4437 10.2314 15.4297 10.2989 15.3132C10.9117 14.2414 11.5315 13.1742 12.142 12.1024C12.1793 12.0372 12.1862 11.9184 12.1513 11.8555C11.5338 10.7697 10.9117 9.68622 10.2803 8.60742C10.2477 8.5515 10.1335 8.5049 10.0659 8.51422C9.21082 8.64237 8.40463 8.19967 8.09241 7.40047C8.0295 7.24203 7.95028 7.2164 7.80349 7.2164C7.20933 7.22339 6.61518 7.21873 6.02103 7.21873H6.0187ZM19.1576 10.0916C19.174 10.1243 19.1879 10.1592 19.2043 10.1918C19.2578 10.1336 19.3254 10.0846 19.3627 10.0171C19.9638 8.98255 20.5626 7.94802 21.1521 6.90884C21.1941 6.83428 21.2011 6.69448 21.1591 6.62225C20.3063 5.12871 19.4466 3.63983 18.5775 2.15328C18.5355 2.08105 18.4144 2.01115 18.3282 2.01115C16.6133 2.00183 14.9007 2.00183 13.1858 2.01115C13.0996 2.01115 12.9784 2.07872 12.9365 2.15328C12.3121 3.21809 11.6969 4.28757 11.0772 5.35472C11.0189 5.45491 11.0212 5.51782 11.0981 5.61568C11.6597 6.32633 11.662 7.17912 11.1074 7.89443C11.0259 7.99928 11.0212 8.06685 11.0865 8.17637C11.7039 9.23652 12.3121 10.3013 12.9342 11.3592C12.9784 11.4337 13.0949 11.5036 13.1812 11.5036C14.3858 11.5129 15.5904 11.5083 16.795 11.5129C16.9255 11.5129 16.9791 11.4733 17.021 11.3452C17.2144 10.7534 17.6152 10.3456 18.2093 10.1825C18.5122 10.0986 18.8431 10.1196 19.16 10.0916H19.1576ZM9.75371 18.0347C10.236 18.03 10.6228 17.6339 10.6112 17.1586C10.5995 16.6809 10.2057 16.3035 9.72109 16.3104C9.25276 16.3174 8.87296 16.7065 8.87529 17.1772C8.87762 17.6572 9.26907 18.0393 9.75138 18.0347H9.75371ZM2.07165 21.5553C2.55396 21.5507 2.93376 21.1615 2.92677 20.6792C2.91978 20.2109 2.53532 19.8311 2.06233 19.8311C1.57769 19.8311 1.19789 20.2132 1.20022 20.6979C1.20022 21.1848 1.58468 21.56 2.07165 21.5553ZM1.99243 3.62585C2.47707 3.62585 2.8592 3.23906 2.85221 2.75442C2.84755 2.2791 2.47008 1.90397 1.99709 1.90164C1.51478 1.89931 1.12333 2.28143 1.121 2.76141C1.121 3.24139 1.50779 3.62585 1.9901 3.62585H1.99243ZM9.74672 7.62182C10.229 7.62182 10.6181 7.23038 10.6135 6.7504C10.6088 6.27507 10.2057 5.88363 9.73041 5.89062C9.26208 5.89761 8.87995 6.28439 8.87762 6.75273C8.87529 7.23038 9.26674 7.62182 9.74672 7.61949V7.62182ZM19.5724 11.8811C19.5747 11.4011 19.1879 11.0073 18.7103 11.0073C18.2396 11.0073 17.8528 11.3871 17.8459 11.8555C17.8389 12.3354 18.2233 12.7339 18.6986 12.7409C19.1786 12.7479 19.5701 12.3634 19.5724 11.8811Z" fill="white" stroke="white" stroke-width="0.3"/>
<path d="M15.7582 21.0149C15.1477 21.0149 14.5373 21.0079 13.9291 21.0172C13.6612 21.0219 13.4818 20.924 13.349 20.6863C12.9878 20.0409 12.608 19.4048 12.2445 18.7594C12.0581 18.4285 12.2096 18.0744 12.5521 18.0348C12.7804 18.0068 12.9296 18.1256 13.0391 18.3167C13.349 18.8596 13.6658 19.3978 13.9734 19.9407C14.041 20.0619 14.1179 20.1131 14.2623 20.1108C15.2666 20.1038 16.2685 20.1038 17.2727 20.1108C17.4078 20.1108 17.4801 20.0665 17.5453 19.9524C18.0463 19.074 18.5496 18.2002 19.0598 17.3264C19.1274 17.2099 19.1204 17.1261 19.0552 17.0142C18.7196 16.4434 18.3888 15.8679 18.0579 15.2923C17.9135 15.0384 17.9484 14.8007 18.1418 14.6493C18.3515 14.4885 18.6497 14.5211 18.7895 14.7564C19.2276 15.4927 19.6586 16.2313 20.0687 16.9839C20.1293 17.0958 20.113 17.3031 20.0477 17.4173C19.4163 18.5404 18.7686 19.6518 18.1232 20.7679C18.0136 20.9566 17.8459 21.0172 17.6362 21.0172C17.0117 21.0125 16.385 21.0172 15.7605 21.0172L15.7582 21.0149Z" fill="white"/>
<path d="M5.97915 15.805C5.59237 15.805 5.20792 15.8027 4.82114 15.805C4.6161 15.805 4.46698 15.7211 4.36445 15.544C3.72836 14.4419 3.0946 13.3375 2.4585 12.2377C2.35132 12.0513 2.35365 11.8789 2.46083 11.6925C3.0946 10.5974 3.72603 9.50229 4.35513 8.40486C4.46698 8.20914 4.62775 8.12292 4.84677 8.12292C5.5947 8.12292 6.34497 8.12292 7.0929 8.12292C7.43075 8.12292 7.64279 8.31166 7.63813 8.59126C7.63113 8.85921 7.42143 9.03629 7.09756 9.03629C6.47312 9.03629 5.84634 9.04095 5.2219 9.03396C5.08909 9.03396 5.01686 9.0759 4.95162 9.19007C4.45533 10.0615 3.95437 10.9306 3.44876 11.795C3.37886 11.9162 3.3742 12.0071 3.44876 12.1306C3.95204 12.988 4.44833 13.8501 4.93997 14.7169C5.01686 14.852 5.10307 14.8916 5.25219 14.8893C5.86265 14.8823 6.47079 14.887 7.08125 14.8846C7.28396 14.8846 7.4657 14.9266 7.57755 15.1176C7.7523 15.4205 7.54958 15.784 7.1861 15.7957C6.78534 15.8073 6.38225 15.798 5.98148 15.798L5.97915 15.805Z" fill="white"/>
<path d="M15.7535 2.92681C16.3779 2.92681 17.0047 2.93147 17.6292 2.92448C17.8738 2.92215 18.0346 3.01768 18.1558 3.22738C18.7732 4.30385 19.393 5.37799 20.0174 6.45212C20.1386 6.65949 20.1479 6.85056 20.0244 7.06026C19.6656 7.67072 19.3138 8.28817 18.9573 8.90097C18.8105 9.15028 18.6031 9.24115 18.3818 9.16426C18.1045 9.06873 17.995 8.76117 18.1511 8.47924C18.4423 7.96197 18.7383 7.44704 19.0435 6.9391C19.1204 6.80862 19.118 6.71541 19.0435 6.58493C18.5449 5.73448 18.0509 4.87936 17.5639 4.02192C17.4917 3.89377 17.4125 3.83785 17.2587 3.84018C16.2545 3.84717 15.2526 3.84717 14.2483 3.84018C14.1155 3.84018 14.0409 3.87979 13.9757 3.99629C13.6612 4.55316 13.3396 5.10537 13.0181 5.65992C12.9109 5.84632 12.7478 5.9302 12.5334 5.89758C12.3354 5.86729 12.2049 5.7438 12.1746 5.55507C12.156 5.44323 12.1816 5.30343 12.2375 5.20323C12.6173 4.52287 13.0111 3.85183 13.4002 3.17845C13.5027 3.00137 13.6565 2.92448 13.8592 2.92448C14.493 2.92681 15.1244 2.92448 15.7582 2.92448L15.7535 2.92681Z" fill="white"/>
</g>
<defs>
<clipPath id="clip0_779_216">
<rect width="23" height="24" fill="white"/>
</clipPath>
</defs>
</svg>
