<svg width="22" height="22" viewBox="0 0 22 22" fill="none" xmlns="http://www.w3.org/2000/svg">
<path d="M10.9086 21.1756H10.58C10.4799 21.1299 10.3799 21.0899 10.2827 21.0413C9.11671 20.4583 7.95068 19.8753 6.78465 19.2923C4.78696 18.2948 2.79213 17.2946 0.794447 16.3C0.57153 16.1886 0.388623 16.0485 0.297169 15.8113C0.139984 15.3998 0.311459 14.9797 0.734431 14.7653C1.77186 14.2423 2.80928 13.7279 3.84671 13.2077C3.90958 13.1763 3.9696 13.1392 4.05533 13.0934C3.95531 13.042 3.88957 13.0048 3.82384 12.9734C2.80928 12.4675 1.79758 11.9588 0.783016 11.4558C0.560098 11.3444 0.380049 11.1986 0.294311 10.9586C0.145699 10.5442 0.32289 10.1355 0.751578 9.92113C1.78329 9.40385 2.815 8.88943 3.84671 8.37214C3.90958 8.34071 3.9696 8.30641 4.05819 8.25783C3.95816 8.20353 3.89243 8.16923 3.8267 8.13494C2.81214 7.62908 1.80044 7.12037 0.785873 6.61738C0.55724 6.50306 0.371475 6.35159 0.288595 6.10295C0.148557 5.67998 0.331464 5.28845 0.783016 5.06267C3.91244 3.49367 7.04758 1.93325 10.1741 0.355675C10.5743 0.152763 10.9172 0.152763 11.3145 0.355675C13.6522 1.53885 16.0014 2.70489 18.3449 3.87663C19.1394 4.27388 19.9311 4.67114 20.7256 5.06553C20.9542 5.17985 21.1514 5.33417 21.2 5.5971C21.2972 6.11724 21.1514 6.38875 20.677 6.62881C19.671 7.13466 18.6622 7.6348 17.6562 8.14065C17.5933 8.17209 17.5304 8.20924 17.4447 8.25783C17.5333 8.30641 17.5962 8.34356 17.6619 8.375C18.6765 8.88085 19.6882 9.38956 20.7027 9.89541C20.9999 10.044 21.2029 10.2384 21.2171 10.6128C21.2343 11.0272 21.0657 11.2815 20.7084 11.4587C19.6853 11.9617 18.6679 12.4761 17.6505 12.9877C17.5876 13.0191 17.5276 13.0563 17.4447 13.102C17.5447 13.1534 17.6104 13.1906 17.6762 13.222C18.6822 13.725 19.691 14.228 20.697 14.7367C20.8342 14.8053 20.9742 14.8968 21.0714 15.0139C21.4058 15.4169 21.24 16.0314 20.737 16.2857C19.1766 17.0688 17.6133 17.8519 16.05 18.6321C14.341 19.4837 12.6291 20.3325 10.9172 21.1813L10.9086 21.1756ZM2.90931 5.83145C2.98933 5.87432 3.02934 5.90004 3.07221 5.92005C5.58146 7.17467 8.09072 8.4293 10.6 9.68679C10.7229 9.7468 10.8115 9.7268 10.9229 9.6725C13.4064 8.4293 15.8928 7.18611 18.3764 5.94291C18.4335 5.91433 18.4907 5.88004 18.5707 5.83431C18.5021 5.7943 18.4593 5.76858 18.4107 5.74571C15.9071 4.49394 13.4036 3.24218 10.9029 1.98469C10.7714 1.91896 10.6771 1.94468 10.5628 2.0047C8.47082 3.05355 6.37597 4.09955 4.28111 5.14555C3.83813 5.36847 3.3923 5.59139 2.91217 5.83145H2.90931ZM2.90931 10.6699C2.99219 10.7156 3.03791 10.7442 3.08364 10.7671C5.58718 12.0188 8.08786 13.2706 10.5885 14.5252C10.7057 14.5853 10.7972 14.5767 10.9115 14.5195C13.4064 13.2678 15.9043 12.0188 18.3992 10.7699C18.4507 10.7442 18.4964 10.7128 18.5679 10.6728C18.485 10.627 18.425 10.5927 18.3678 10.5642C17.5019 10.1298 16.633 9.70108 15.7699 9.26096C15.6413 9.19522 15.5413 9.19522 15.4099 9.26096C14.0266 9.95829 12.6377 10.6413 11.2573 11.3444C10.9001 11.5273 10.5828 11.5187 10.2284 11.3387C8.85378 10.6385 7.47341 9.95543 6.09017 9.26953C6.01015 9.22952 5.88155 9.19808 5.81295 9.23238C4.85555 9.69822 3.90672 10.1755 2.91502 10.6728L2.90931 10.6699ZM18.5821 15.5198C18.485 15.4655 18.4278 15.4312 18.3678 15.4026C17.5019 14.9682 16.633 14.5395 15.7699 14.0994C15.6413 14.0337 15.5413 14.0337 15.4099 14.0994C14.0209 14.7996 12.6262 15.4884 11.2373 16.1914C10.8943 16.3657 10.5857 16.36 10.2456 16.1857C8.87093 15.4884 7.4877 14.8053 6.11018 14.1108C5.96728 14.0394 5.86154 14.0308 5.71293 14.1051C4.84984 14.5452 3.98103 14.9739 3.11222 15.4055C3.05506 15.4341 3.00076 15.4684 2.92074 15.5141C2.99505 15.557 3.04649 15.5884 3.10079 15.6141C5.59004 16.8602 8.08214 18.1034 10.5714 19.3523C10.7029 19.418 10.8029 19.4123 10.9315 19.3466C12.9149 18.352 14.8983 17.3603 16.8817 16.3686C17.4361 16.0914 17.9906 15.8142 18.5821 15.5169V15.5198Z" fill="#474747"/>
</svg>
