<svg width="22" height="22" viewBox="0 0 22 22" fill="none" xmlns="http://www.w3.org/2000/svg">
<g clip-path="url(#clip0_4_18613)">
<path d="M10.8605 21.418C10.3195 21.2489 10.004 20.8976 9.9307 20.3229C9.85745 19.7537 9.75977 19.1883 9.67149 18.6211C9.63392 18.3807 9.59448 18.1383 9.55691 17.8923C9.37095 17.9017 9.20002 17.9261 9.03285 17.9148C8.61397 17.8866 8.25709 17.7138 7.96219 17.4171C6.77882 16.2318 5.59358 15.0503 4.4121 13.8632C4.01764 13.4669 3.8392 12.9898 3.92372 12.4281C3.92936 12.3943 3.93124 12.3605 3.93312 12.3267C3.93312 12.3136 3.92748 12.3004 3.91997 12.261C3.60253 12.2103 3.27381 12.1595 2.94698 12.1069C2.42104 12.0243 1.89322 11.9473 1.36916 11.8609C0.553957 11.7256 0.140719 10.8503 0.585889 10.1535C1.28276 9.06777 2.00029 7.99335 2.72158 6.92269C2.99957 6.50945 3.40342 6.27842 3.90306 6.23709C4.87042 6.15632 5.83589 6.07931 6.80324 6.00981C6.95539 5.99854 7.04931 5.93844 7.14322 5.82949C8.33222 4.43575 9.68276 3.22985 11.2737 2.31133C12.7388 1.46607 14.3223 0.949527 15.9846 0.667774C17.2751 0.448006 18.5749 0.355967 19.8841 0.453641C20.6768 0.51187 21.2741 1.10731 21.368 1.90185C21.3736 1.95445 21.3905 2.00704 21.4037 2.05963V3.74076C21.3492 4.24979 21.306 4.75883 21.2403 5.26598C21.0092 6.99971 20.5284 8.65641 19.7019 10.2042C18.7759 11.9379 17.5005 13.388 16.0147 14.6634C15.8964 14.7648 15.8231 14.8644 15.8118 15.0353C15.748 15.9764 15.6653 16.9155 15.5939 17.8547C15.5489 18.4445 15.2652 18.8803 14.775 19.1996C14.1852 19.5828 13.6066 19.9829 13.0131 20.3586C12.4402 20.723 11.8541 21.0686 11.2737 21.4217H10.8642L10.8605 21.418ZM18.6331 1.65767C18.6331 1.65767 18.6331 1.64076 18.6331 1.63325C18.1973 1.6633 17.7597 1.68584 17.3258 1.72717C15.6334 1.8887 13.9955 2.27752 12.4815 3.06455C9.70342 4.50713 7.65601 6.68602 6.19465 9.43781C6.12703 9.56366 6.18526 9.62001 6.2604 9.69514C8.21764 11.6505 10.1749 13.6078 12.1284 15.5688C12.2317 15.6739 12.3068 15.6758 12.4233 15.6044C12.9135 15.3095 13.4282 15.0485 13.8997 14.7235C15.8532 13.3805 17.4742 11.72 18.6106 9.62564C19.3676 8.2319 19.7921 6.72547 20.0137 5.15892C20.1508 4.18781 20.1997 3.21482 20.1602 2.2362C20.1414 1.77976 20.0381 1.67645 19.5779 1.65954C19.2642 1.64827 18.9487 1.65767 18.635 1.65767H18.6331ZM11.0032 16.2581C9.1756 14.4286 7.38741 12.6404 5.59922 10.8522C5.58982 10.8785 5.56728 10.9273 5.55226 10.9799C5.44895 11.3406 5.32686 11.6975 5.24796 12.0637C5.06764 12.9165 5.02256 12.7362 5.61049 13.326C6.66236 14.3816 7.71424 15.4373 8.77551 16.4835C8.87882 16.5849 9.05539 16.7014 9.17372 16.6789C9.78795 16.5624 10.3928 16.4027 11.0032 16.26V16.2581ZM11.1479 20.0975C11.193 20.0768 11.2136 20.0712 11.2305 20.0599C12.2054 19.4156 13.1821 18.777 14.1476 18.1214C14.2547 18.0482 14.3392 17.8848 14.358 17.7514C14.4143 17.3532 14.4331 16.9493 14.4632 16.5474C14.482 16.3126 14.4951 16.0778 14.512 15.8298C14.4707 15.843 14.45 15.8449 14.4331 15.8543C13.3249 16.5793 12.1472 17.1597 10.8811 17.5561C10.8342 17.5711 10.7797 17.6612 10.7835 17.712C10.7966 17.896 10.8323 18.0764 10.8605 18.2586C10.9544 18.8653 11.0483 19.472 11.146 20.0975H11.1479ZM5.99931 7.32654C5.96362 7.31715 5.94483 7.30963 5.92605 7.30963C5.30619 7.35659 4.68634 7.40731 4.06648 7.45051C3.87677 7.46366 3.75655 7.56321 3.657 7.71724C3.05029 8.64326 2.43795 9.56554 1.82936 10.4878C1.79367 10.5404 1.76362 10.5968 1.71854 10.67C2.53374 10.7959 3.32265 10.9161 4.11156 11.0419C4.25807 11.0663 4.26558 10.9649 4.29188 10.8785C4.6112 9.84165 5.06389 8.86679 5.62176 7.93888C5.74385 7.73602 5.87158 7.53504 6.00118 7.32466L5.99931 7.32654Z" fill="#474747"/>
<path d="M0.854491 21.418C0.820681 21.3974 0.788749 21.3748 0.754939 21.356C0.369876 21.1513 0.28535 20.6967 0.580252 20.3737C0.717372 20.2234 0.86764 20.0825 1.01227 19.9379C2.14116 18.809 3.27005 17.6764 4.40082 16.5493C4.77274 16.1774 5.3231 16.292 5.46397 16.7691C5.54474 17.0433 5.43768 17.2575 5.24421 17.4491C4.27685 18.4127 3.31326 19.38 2.34778 20.3455C2.1205 20.5728 1.89886 20.8057 1.66594 21.0236C1.51379 21.1663 1.34474 21.2884 1.18133 21.418H0.852613H0.854491Z" fill="#474747"/>
<path d="M4.62811 21.418C4.59055 21.403 4.55486 21.3861 4.51729 21.3729C4.08715 21.2095 3.95003 20.7005 4.26935 20.3718C4.93616 19.6862 5.61613 19.0118 6.29797 18.3413C6.54028 18.1027 6.91595 18.1159 7.15074 18.3413C7.39305 18.576 7.40808 18.9555 7.16013 19.2072C6.4952 19.8853 5.82275 20.5558 5.14466 21.2208C5.05262 21.3109 4.91174 21.3541 4.79341 21.418H4.62999H4.62811Z" fill="#474747"/>
<path d="M3.69456 15.1254C3.6138 15.2701 3.5612 15.4391 3.4485 15.5518C2.80047 16.2168 2.14304 16.8704 1.48374 17.5222C1.21326 17.7889 0.835709 17.7889 0.589645 17.5335C0.349215 17.2837 0.356729 16.9174 0.619698 16.6525C1.27337 15.9932 1.92891 15.3377 2.58634 14.684C2.78356 14.4868 3.01836 14.4304 3.27945 14.5356C3.50861 14.6277 3.64761 14.8474 3.69269 15.1254H3.69456Z" fill="#474747"/>
<path d="M11.7151 7.03917C11.7114 5.33738 13.0788 3.96055 14.7787 3.95303C16.4711 3.94552 17.8592 5.32799 17.8649 7.02226C17.8705 8.71842 16.4956 10.099 14.7956 10.1028C13.0882 10.1065 11.7189 8.74471 11.7151 7.04105V7.03917ZM12.9455 7.03353C12.9455 8.05348 13.7607 8.86869 14.7787 8.87056C15.8043 8.87244 16.6364 8.04409 16.6327 7.02602C16.6289 6.01547 15.8024 5.18899 14.7919 5.18336C13.7738 5.17772 12.9417 6.00983 12.9436 7.03353H12.9455Z" fill="#474747"/>
</g>
<defs>
<clipPath id="clip0_4_18613">
<rect width="21" height="21.0056" fill="white" transform="translate(0.399918 0.412231)"/>
</clipPath>
</defs>
</svg>
