<svg width="23" height="23" viewBox="0 0 23 23" fill="none" xmlns="http://www.w3.org/2000/svg">
<g clip-path="url(#clip0_779_254)">
<path d="M9.79967 14.779C9.05559 15.5293 8.34251 16.2641 7.60463 16.9772C7.42791 17.1477 7.19538 17.2996 6.95976 17.3647C6.4482 17.5135 5.93355 17.2686 5.67002 16.816C5.40029 16.3478 5.45919 15.7991 5.84984 15.3991C6.51951 14.7139 7.20158 14.0412 7.88056 13.3684C7.95497 13.294 8.04798 13.232 8.16579 13.1359C8.01077 13.0398 7.91466 12.9777 7.81545 12.9188C5.59251 11.5857 3.36647 10.2494 1.14352 8.9132C0.489351 8.51946 0.290929 7.80948 0.66297 7.21732C0.852091 6.91658 1.14352 6.76467 1.47216 6.66236C5.78473 5.29821 10.0942 3.93096 14.4068 2.56371C16.5491 1.88473 18.6883 1.20266 20.8307 0.526787C21.6585 0.266358 22.3839 0.691105 22.4739 1.49719C22.4925 1.67701 22.4583 1.87233 22.4025 2.04595C20.347 8.54426 18.2853 15.0426 16.2236 21.5409C16.0717 22.0245 15.7554 22.3408 15.2439 22.4121C14.6951 22.4865 14.2921 22.2509 14.0099 21.7796C12.6768 19.5536 11.3405 17.3306 10.0074 15.1077C9.94848 15.0085 9.88338 14.9093 9.79967 14.7759V14.779ZM11.57 13.1111C12.6055 14.8379 13.6565 16.5834 14.7385 18.3878C16.0592 14.221 17.3614 10.1192 18.6666 6.01439C16.3011 8.37994 13.9479 10.7331 11.57 13.1111ZM16.918 4.25649C12.7946 5.56484 8.69595 6.86388 4.53219 8.18462C6.34899 9.27594 8.10068 10.3239 9.81827 11.3563C12.1838 8.99071 14.537 6.63755 16.918 4.25649Z" fill="white" stroke="#474747" stroke-width="0.6" stroke-linejoin="round"/>
</g>
<defs>
<clipPath id="clip0_779_254">
<rect width="23" height="23" fill="white"/>
</clipPath>
</defs>
</svg>
