<svg width="22" height="22" viewBox="0 0 22 22" fill="none" xmlns="http://www.w3.org/2000/svg">
<g clip-path="url(#clip0_779_195)">
<path d="M14.055 12.9759C14.528 13.4499 14.9896 13.9148 15.458 14.3706C15.4989 14.4116 15.6035 14.4275 15.6581 14.407C16.479 14.0766 17.1839 14.2475 17.8001 14.8696C18.9825 16.0615 20.1741 17.2442 21.3588 18.4337C22.2115 19.2906 22.2092 20.348 21.361 21.2071C21.0495 21.5216 20.7357 21.8292 20.2878 21.9386C19.6442 22.0936 19.0599 21.966 18.5778 21.5079C18.0457 21.002 17.5318 20.4733 17.0133 19.9537C16.2834 19.2245 15.5535 18.4953 14.8258 17.766C14.2278 17.1644 14.0823 16.4717 14.3961 15.6786C14.4188 15.6216 14.4143 15.5145 14.3756 15.4758C13.914 15.0018 13.4433 14.5346 12.9772 14.0675C9.45034 17.0254 4.18171 16.1868 1.56672 12.6796C-0.845885 9.43229 -0.438857 4.91561 2.55815 2.09668C5.46192 -0.635662 10.0461 -0.706307 13.1227 1.94399C16.2948 4.67861 16.836 9.54623 14.055 12.9759ZM7.93365 1.53836C4.40455 1.53152 1.54626 4.38008 1.53716 7.91686C1.52807 11.4468 4.37044 14.3045 7.90864 14.3227C11.4423 14.3386 14.3165 11.4741 14.3188 7.93053C14.3188 4.39603 11.4718 1.54292 7.93592 1.53836H7.93365ZM20.4856 19.7942C20.4128 19.6985 20.3514 19.5982 20.2696 19.5185C19.1417 18.3882 18.0116 17.2579 16.8837 16.1298C16.5775 15.8229 16.2736 15.8207 15.9719 16.123C15.7013 16.3942 15.7013 16.4694 15.981 16.7474C17.0929 17.8595 18.2117 18.9647 19.3145 20.0882C19.8716 20.6556 19.8625 20.5371 20.3673 20.0267C20.4196 19.9742 20.4378 19.8922 20.4856 19.7942Z" fill="white"/>
<path d="M7.40835 7.43354C7.40835 8.28811 7.41289 9.14268 7.40607 9.99725C7.4038 10.3391 7.17868 10.6194 6.86716 10.7105C6.54881 10.804 6.20318 10.6991 6.02581 10.412C5.9394 10.2707 5.88256 10.0838 5.88028 9.91977C5.86891 8.24937 5.87119 6.58126 5.87574 4.91086C5.87574 4.42319 6.21227 4.08592 6.65796 4.09275C7.09227 4.09959 7.4038 4.43686 7.40607 4.91542C7.41062 5.75403 7.40607 6.59265 7.40607 7.43127L7.40835 7.43354Z" fill="white"/>
<path d="M10.9966 7.93272C10.9966 7.27869 10.9966 6.62238 10.9966 5.96835C10.9966 5.46244 11.3149 5.1115 11.7674 5.11378C12.2177 5.11606 12.5315 5.467 12.5315 5.97518C12.5315 7.29236 12.5315 8.60953 12.5315 9.92671C12.5315 10.3962 12.2086 10.738 11.7743 10.7448C11.3354 10.7517 11.0034 10.3984 10.9989 9.91759C10.9989 9.86974 10.9989 9.82188 10.9989 9.77402C10.9989 9.15874 10.9989 8.54345 10.9989 7.93044L10.9966 7.93272Z" fill="white"/>
<path d="M8.443 8.43632C8.443 7.94181 8.43845 7.44502 8.443 6.95051C8.44755 6.46967 8.7568 6.1438 9.20248 6.1438C9.64362 6.1438 9.96879 6.47195 9.97334 6.94823C9.98016 7.94637 9.98243 8.94678 9.97334 9.94492C9.96879 10.4098 9.62088 10.7562 9.19566 10.7471C8.76362 10.738 8.44755 10.3984 8.443 9.92441C8.43845 9.4299 8.443 8.93311 8.443 8.4386V8.43632Z" fill="white"/>
<path d="M4.85703 8.9718C4.85703 9.27489 4.85703 9.57798 4.85703 9.88106C4.85703 10.3892 4.5455 10.7402 4.09527 10.7447C3.64959 10.7493 3.32442 10.3915 3.32214 9.89246C3.32214 9.27033 3.32214 8.64593 3.32214 8.0238C3.32214 7.51106 3.62912 7.16468 4.0839 7.1624C4.54323 7.15784 4.85703 7.51106 4.85703 8.0352C4.85703 8.3474 4.85703 8.65732 4.85703 8.96952V8.9718Z" fill="white"/>
</g>
<defs>
<clipPath id="clip0_779_195">
<rect width="22" height="22" fill="white"/>
</clipPath>
</defs>
</svg>
