<svg width="23" height="22" viewBox="0 0 23 22" fill="none" xmlns="http://www.w3.org/2000/svg">
<g clip-path="url(#clip0_779_273)">
<path d="M0.584961 3.67165C0.780057 3.12079 1.17025 2.93717 1.74406 2.93717C5.43942 2.94864 9.13478 2.93717 12.8301 2.94864C13.0367 2.94864 13.14 2.89126 13.2203 2.69616C13.8171 1.12392 15.5041 0.297624 17.0993 0.80258C18.0518 1.10096 18.7404 1.72068 19.1077 2.66173C19.188 2.87978 19.2913 2.97159 19.5323 2.96012C20.2438 2.93717 20.9668 2.94864 21.6783 2.96012C22.1144 2.96012 22.4587 3.24702 22.562 3.67165C22.6538 4.05036 22.4817 4.48646 22.1259 4.65861C21.9538 4.73894 21.7472 4.78484 21.5521 4.78484C20.8635 4.79632 20.1749 4.79632 19.4864 4.78484C19.2913 4.78484 19.1995 4.83075 19.1306 5.02585C18.6486 6.29971 17.4321 7.11453 16.0779 7.0801C14.85 7.05714 13.6679 6.23085 13.2318 5.07175C13.1515 4.8537 13.0597 4.78484 12.8187 4.78484C9.13478 4.78484 5.46237 4.78484 1.77849 4.79632C1.20468 4.79632 0.791534 4.62418 0.584961 4.07332V3.68312L0.584961 3.67165ZM16.1697 5.23242C16.9272 5.23242 17.5584 4.60122 17.5469 3.85527C17.5469 3.10931 16.9157 2.48959 16.1697 2.48959C15.4123 2.48959 14.7926 3.12079 14.8041 3.87822C14.8041 4.63565 15.4238 5.24389 16.1697 5.24389V5.23242Z" fill="white"/>
<path d="M0.584964 18.3499C0.676774 18.2007 0.745632 18.0285 0.860395 17.9023C1.06697 17.6613 1.36535 17.6269 1.66373 17.6269C5.37057 17.6269 9.0774 17.6269 12.7842 17.6269C13.0138 17.6269 13.1285 17.5695 13.2089 17.34C13.9892 15.2972 16.6173 14.6775 18.2355 16.1235C18.6371 16.4792 18.947 16.9039 19.1191 17.4203C19.1765 17.581 19.2568 17.6269 19.4175 17.6154C20.129 17.6154 20.8291 17.6154 21.5406 17.6154C22.0226 17.6154 22.3554 17.822 22.4932 18.2122C22.7227 18.8204 22.2981 19.4401 21.6324 19.4516C20.9209 19.4516 20.1979 19.4516 19.4864 19.4516C19.2798 19.4516 19.1765 19.4975 19.0962 19.7041C18.4994 21.2648 16.8009 22.1026 15.2172 21.5976C14.2532 21.2993 13.5761 20.6681 13.1974 19.7155C13.117 19.4975 13.0138 19.4401 12.7842 19.4401C9.10035 19.4401 5.41647 19.4401 1.72111 19.4516C1.1473 19.4516 0.757108 19.268 0.562012 18.7171C0.562012 18.5909 0.562012 18.4532 0.562012 18.3269L0.584964 18.3499ZM14.7926 18.545C14.7926 19.3024 15.4123 19.9336 16.1583 19.9336C16.9042 19.9336 17.5125 19.3253 17.5354 18.5679C17.5469 17.822 16.9157 17.1908 16.1583 17.1908C15.4008 17.1908 14.7926 17.799 14.7926 18.5564V18.545Z" fill="white"/>
<path d="M0.584961 11.028C0.768581 10.4656 1.15877 10.259 1.73259 10.282C2.37526 10.3049 3.01793 10.282 3.6606 10.282C3.87865 10.282 3.97046 10.2131 4.03932 10.018C4.63608 8.44579 6.35752 7.6195 7.94125 8.13593C8.89378 8.44579 9.57088 9.07699 9.93812 10.0066C10.0185 10.2131 10.1103 10.282 10.3398 10.282C14.0466 10.282 17.7535 10.282 21.4603 10.282C21.621 10.282 21.7816 10.282 21.9308 10.3279C22.3554 10.4541 22.6194 10.8673 22.5735 11.3034C22.5161 11.7395 22.1718 12.0723 21.7242 12.1067C21.621 12.1067 21.5291 12.1067 21.4259 12.1067C17.7305 12.1067 14.0351 12.1067 10.3513 12.1067C10.1217 12.1067 10.0299 12.1756 9.94959 12.3822C9.35283 13.9429 7.63139 14.7807 6.03619 14.2528C5.07218 13.9314 4.39508 13.2888 4.02784 12.3362C3.95898 12.1641 3.89013 12.1067 3.70651 12.1067C3.05236 12.1182 2.38673 12.0952 1.73259 12.1067C1.15877 12.1297 0.768581 11.9231 0.584961 11.3608V11.0165L0.584961 11.028ZM8.36587 11.1886C8.36587 10.4312 7.74615 9.82295 7.00019 9.82295C6.24276 9.82295 5.61157 10.4656 5.62304 11.2116C5.62304 11.969 6.25424 12.5772 7.00019 12.5772C7.75763 12.5772 8.37735 11.9575 8.36587 11.1886Z" fill="white"/>
</g>
<defs>
<clipPath id="clip0_779_273">
<rect width="22" height="21.1163" fill="white" transform="translate(0.584961 0.641968)"/>
</clipPath>
</defs>
</svg>
