<svg width="23" height="23" viewBox="0 0 23 23" fill="none" xmlns="http://www.w3.org/2000/svg">
<g clip-path="url(#clip0_779_226)">
<path d="M11.26 0.260137C13.8132 0.260137 16.3632 0.25683 18.9164 0.260137C20.6097 0.263444 21.926 1.378 22.217 3.04156C22.2468 3.21684 22.2534 3.40205 22.2534 3.58064C22.2534 8.69369 22.26 13.8067 22.2534 18.9198C22.2534 20.6131 21.1289 21.9294 19.4654 22.2171C19.2736 22.2502 19.0718 22.2535 18.8734 22.2535C13.7934 22.2535 8.71674 22.2568 3.63676 22.2535C1.91698 22.2535 0.597373 21.1522 0.296411 19.482C0.263339 19.3067 0.256724 19.1215 0.256724 18.9429C0.256724 13.82 0.250109 8.70031 0.256724 3.57733C0.266646 1.91708 1.37458 0.607401 3.01499 0.306439C3.23989 0.266751 3.4747 0.263444 3.70621 0.263444C6.22305 0.263444 8.74319 0.263444 11.26 0.263444V0.260137ZM20.6064 11.2833C20.6064 8.74661 20.6064 6.21323 20.6064 3.67655C20.6064 2.57854 19.9383 1.91047 18.8403 1.91047C13.7868 1.91047 8.73327 1.91047 3.67975 1.91047C2.58505 1.91047 1.91367 2.58184 1.91367 3.67655C1.91367 8.73007 1.91367 13.7836 1.91367 18.8371C1.91367 19.9318 2.58505 20.6032 3.67975 20.6065C8.73327 20.6065 13.7868 20.6065 18.8403 20.6065C19.0024 20.6065 19.171 20.6032 19.3265 20.5668C20.1235 20.3849 20.6064 19.7433 20.6064 18.8669C20.6064 16.3401 20.6064 13.8134 20.6064 11.2866V11.2833Z" fill="white"/>
<path d="M13.7636 13.2743C15.1196 13.2743 16.4789 13.2743 17.8349 13.2743C18.1722 13.2743 18.4302 13.4264 18.5889 13.7241C18.7411 14.0085 18.7179 14.2896 18.5426 14.5509C18.3574 14.8221 18.0928 14.9246 17.7687 14.9246C15.8538 14.9213 13.9389 14.9246 12.0207 14.9246C11.2633 14.9246 10.5092 14.9246 9.75188 14.9246C9.16319 14.9246 8.77954 14.5906 8.78616 14.0912C8.78946 13.6017 9.17311 13.2743 9.74196 13.2743C11.0814 13.2743 12.4209 13.2743 13.7636 13.2743Z" fill="white"/>
<path d="M13.7306 9.19973C12.3647 9.19973 10.9988 9.19973 9.63285 9.19973C9.22606 9.19973 8.91517 8.9583 8.81265 8.58458C8.72004 8.25055 8.85233 7.87682 9.16983 7.69492C9.31204 7.61224 9.49064 7.55932 9.65269 7.55602C12.3746 7.5494 15.0998 7.5494 17.8217 7.55271C18.3178 7.55271 18.6882 7.91982 18.6849 8.38614C18.6816 8.84255 18.3145 9.19643 17.8283 9.19973C16.4624 9.20304 15.0965 9.19973 13.7306 9.19973Z" fill="white"/>
<path d="M5.60459 8.12478C5.95516 7.74444 6.2892 7.38725 6.61993 7.02676C7.00688 6.61004 7.50628 6.55713 7.87008 6.89447C8.21734 7.22189 8.21073 7.73452 7.84693 8.1347C7.34091 8.68371 6.8349 9.23271 6.32227 9.77841C5.90886 10.2216 5.43592 10.2315 4.99275 9.82141C4.70501 9.55352 4.41397 9.28563 4.12624 9.01113C3.75913 8.65725 3.73598 8.16446 4.0634 7.8172C4.38751 7.47655 4.86707 7.46663 5.24079 7.79736C5.35655 7.89988 5.46899 8.00241 5.60459 8.12478Z" fill="white"/>
<path d="M5.60456 13.8564C5.96174 13.4728 6.29908 13.1056 6.63973 12.7418C7.01346 12.3417 7.51285 12.2921 7.87004 12.6261C8.22061 12.9535 8.214 13.4694 7.8502 13.863C7.34418 14.412 6.83817 14.961 6.32554 15.5067C5.90883 15.9532 5.4425 15.9664 4.99933 15.553C4.71159 15.2851 4.41724 15.0173 4.13282 14.7427C3.7624 14.3856 3.73925 13.8994 4.06337 13.5521C4.38748 13.2049 4.87696 13.2016 5.2606 13.5422C5.36974 13.6381 5.47557 13.7373 5.60456 13.8564Z" fill="white"/>
</g>
<defs>
<clipPath id="clip0_779_226">
<rect width="22" height="22" fill="white" transform="translate(0.26001 0.260132)"/>
</clipPath>
</defs>
</svg>
