<svg width="23" height="20" viewBox="0 0 23 20" fill="none" xmlns="http://www.w3.org/2000/svg">
<g clip-path="url(#clip0_779_206)">
<path d="M0.88501 11.7954C0.917005 11.6656 0.948999 11.5341 0.984549 11.4061C1.32405 10.1619 2.46342 9.27313 3.75388 9.26602C4.28179 9.26247 4.82037 9.24291 5.33762 9.3229C6.21215 9.45977 6.8716 9.95746 7.32664 10.7182C7.36574 10.784 7.40307 10.8533 7.43684 10.9138C7.75323 10.6578 8.0483 10.3894 8.37358 10.1619C9.21789 9.57353 10.1653 9.26958 11.1927 9.2678C11.9214 9.2678 12.6573 9.26069 13.3772 9.3549C14.4597 9.49532 15.3751 10.0197 16.1537 10.7822C16.2034 10.8302 16.255 10.8782 16.319 10.9404C16.5607 10.464 16.8771 10.0766 17.3037 9.78327C17.7889 9.4491 18.3257 9.26069 18.9123 9.2678C19.49 9.27313 20.0819 9.24647 20.6418 9.35845C21.9412 9.61619 22.8708 10.8 22.8779 12.1242C22.8868 13.6778 22.8832 15.2313 22.8779 16.7848C22.8761 17.5474 22.3091 18.109 21.5412 18.1108C20.3379 18.1144 19.1345 18.1108 17.9329 18.1108C17.8547 18.1108 17.7765 18.1108 17.6876 18.1108C17.6663 18.2104 17.6503 18.301 17.6254 18.3881C17.4494 19.0191 16.8753 19.4795 16.2159 19.4813C13.331 19.4866 10.4444 19.4866 7.55949 19.4813C6.8556 19.4813 6.27258 18.9836 6.11972 18.2921C6.10728 18.237 6.09306 18.1819 6.07528 18.109H2.4492C1.52668 18.109 1.22807 17.9117 0.88501 17.0781C0.88501 15.3184 0.88501 13.5569 0.88501 11.7954ZM11.8752 18.1979C13.2706 18.1979 14.6659 18.1979 16.0612 18.1979C16.3243 18.1979 16.3936 18.1375 16.3936 17.8975C16.3936 16.7102 16.4078 15.521 16.3883 14.3336C16.3616 12.5615 15.0249 10.9529 13.2759 10.6471C12.6342 10.5352 11.9659 10.5547 11.31 10.5547C9.10235 10.5547 7.37818 12.2842 7.37107 14.4883C7.36752 15.6046 7.37107 16.7208 7.37107 17.8371C7.37107 18.1499 7.41729 18.1979 7.73013 18.1979C9.11124 18.1979 10.4923 18.1979 11.8735 18.1979H11.8752ZM6.08239 16.8186C6.08239 16.7226 6.08239 16.6444 6.08239 16.568C6.08239 15.8303 6.05751 15.0926 6.09483 14.3568C6.11972 13.8751 6.23881 13.3987 6.31347 12.9205C6.35435 12.6628 6.42011 12.4033 6.42011 12.1456C6.42011 11.3723 5.87443 10.7111 5.11011 10.5938C4.70306 10.5316 4.28357 10.5529 3.86942 10.5529C2.86336 10.5529 2.17369 11.2461 2.17369 12.2558C2.17369 13.7009 2.17369 15.1477 2.17369 16.5928C2.17369 16.6675 2.17369 16.7421 2.17369 16.8204H6.08239V16.8186ZM21.5803 16.8132C21.5857 16.767 21.591 16.7457 21.591 16.7261C21.591 15.1868 21.5981 13.6493 21.5874 12.11C21.5821 11.3723 21.0346 10.6969 20.3059 10.6027C19.7655 10.5334 19.2074 10.5618 18.6617 10.592C18.3097 10.6116 18.0129 10.8089 17.7747 11.072C17.3215 11.5732 17.2557 12.1598 17.4068 12.7926C17.4939 13.1534 17.6165 13.5142 17.6343 13.8786C17.6787 14.778 17.6699 15.681 17.6841 16.5822C17.6841 16.6586 17.6841 16.7333 17.6841 16.8132H21.5803Z" fill="white" stroke="white" stroke-width="0.3"/>
<path d="M11.8895 0.323488C13.9531 0.325265 15.6293 2.01033 15.6222 4.07577C15.6169 6.12877 13.9354 7.79961 11.8788 7.79784C9.81691 7.79606 8.14074 6.10922 8.14607 4.04378C8.1514 1.99255 9.83291 0.32171 11.8895 0.323488ZM11.8859 1.61217C10.5403 1.61217 9.44008 2.70888 9.43475 4.05266C9.4312 5.39645 10.5297 6.50382 11.8699 6.50915C13.2244 6.51449 14.3335 5.41067 14.3317 4.05622C14.3317 2.71244 13.2297 1.61217 11.8859 1.61217Z" fill="white"/>
<path d="M4.32267 3.07324C5.62202 3.07324 6.68496 4.13618 6.68496 5.43553C6.68496 6.73487 5.62202 7.79781 4.32267 7.79781C3.0251 7.79781 1.96039 6.7331 1.96039 5.43553C1.96039 4.13618 3.02333 3.07324 4.32267 3.07324ZM5.39628 5.43019C5.3945 4.83829 4.90569 4.35659 4.31201 4.36192C3.72899 4.36726 3.25085 4.8454 3.24907 5.43019C3.24729 6.02388 3.73077 6.50913 4.32267 6.50913C4.91458 6.50913 5.39805 6.02388 5.39628 5.43019Z" fill="white"/>
<path d="M19.4473 3.07324C20.7467 3.07324 21.8096 4.13618 21.8078 5.43731C21.8078 6.73665 20.7431 7.79959 19.4438 7.79781C18.1462 7.79781 17.0815 6.73132 17.0833 5.43375C17.0833 4.13441 18.148 3.07147 19.4473 3.07324ZM20.5191 5.44086C20.5209 4.84718 20.0374 4.36192 19.4455 4.36192C18.8607 4.36192 18.379 4.83651 18.3737 5.41953C18.3666 6.01321 18.8447 6.5038 19.4367 6.50913C20.0303 6.51447 20.5174 6.03099 20.5209 5.44086H20.5191Z" fill="white"/>
</g>
<defs>
<clipPath id="clip0_779_206">
<rect width="22" height="19.1631" fill="white" transform="translate(0.88501 0.323486)"/>
</clipPath>
</defs>
</svg>
