<svg width="23" height="23" viewBox="0 0 23 23" fill="none" xmlns="http://www.w3.org/2000/svg">
<g clip-path="url(#clip0_779_281)">
<path d="M22.2611 16.1579C22.2734 16.1059 22.2809 16.0538 22.2834 15.9968C22.2883 15.6102 22.2883 11.751 22.2834 11.3643C22.2759 10.7843 21.9165 10.3035 21.3663 10.1275C21.2622 10.0953 21.1581 10.068 21.054 10.0383C19.5098 9.60205 18.8183 7.74063 19.7106 6.40714C20.0848 5.84698 20.6177 5.51733 21.2622 5.34631C21.9289 5.17033 22.2809 4.69691 22.2834 4.00786C22.2834 3.71291 22.2933 3.41796 22.2809 3.12549C22.2065 1.45243 20.9177 0.297409 19.4008 0.304845C14.0123 0.327153 8.62383 0.312281 3.23289 0.31476C1.60445 0.31476 0.384983 1.52927 0.384983 3.15771C0.384983 6.58808 0.384983 10.0209 0.384983 13.4513C0.384983 13.5901 0.38994 13.7314 0.409769 13.8677C0.516349 14.6311 0.885659 15.2458 1.49044 15.7316C1.4136 15.801 1.3442 15.863 1.27728 15.9249C0.295754 16.8296 0.0850732 18.3366 0.811301 19.4445C1.40616 20.3542 2.28359 20.7582 3.35186 20.7607C5.9296 20.7656 11.2239 20.7607 13.8115 20.7607C14.7187 21.6802 15.9753 22.2528 17.3609 22.2553C20.1245 22.2602 22.3751 20.0121 22.3775 17.2411C22.3775 16.8693 22.3354 16.5074 22.2586 16.1579H22.2611ZM3.35434 19.6453C3.14862 19.6453 2.93298 19.6304 2.73469 19.5784C1.93658 19.3702 1.41112 18.5919 1.50531 17.7864C1.59949 16.9982 2.31085 16.3389 3.11144 16.3091C3.42126 16.2967 3.73109 16.3091 4.03843 16.2967C4.38296 16.2843 4.61594 16.0414 4.60603 15.7217C4.59859 15.4094 4.36808 15.1938 4.02604 15.1888C3.76331 15.1838 3.50058 15.1888 3.23784 15.1838C2.19684 15.1665 1.49539 14.4576 1.49539 13.4191C1.49539 9.99615 1.49539 6.57073 1.49539 3.14779C1.49539 2.1514 2.21419 1.43261 3.2081 1.43261C8.62135 1.43261 14.0321 1.43261 19.4454 1.43261C20.3079 1.43261 20.9796 1.98285 21.1159 2.83797C21.1705 3.18001 21.1581 3.53197 21.1655 3.87898C21.173 4.22598 21.1655 4.22598 20.8259 4.31521C18.5655 4.89768 17.4898 7.55225 18.7067 9.54504C19.2099 10.3679 19.9287 10.9107 20.8656 11.1462C21.0961 11.2032 21.1853 11.3073 21.1729 11.5477C21.163 11.7212 21.1606 12.8763 21.163 13.9693C20.2484 12.906 18.9001 12.2244 17.3956 12.2194C14.6295 12.212 12.369 14.4576 12.3591 17.2212C12.3566 18.1012 12.5821 18.929 12.9812 19.6503C10.2349 19.6503 5.67678 19.6503 3.35186 19.6478L3.35434 19.6453ZM17.3807 21.1399C15.2268 21.1399 13.4695 19.3801 13.4744 17.2262C13.4794 15.0797 15.2318 13.3323 17.3782 13.3323C19.5247 13.3323 21.2671 15.0822 21.2671 17.2336C21.2671 19.3875 19.5247 21.1374 17.3807 21.1399Z" fill="white" stroke="white" stroke-width="0.4"/>
<path d="M7.07225 12.1426C8.30163 11.9047 9.13196 10.8885 9.14187 9.59465C9.14931 8.47185 9.14683 7.34905 9.14187 6.22624C9.14187 6.02548 9.12205 5.82223 9.07743 5.6289C8.78496 4.32516 7.63241 3.51466 6.28901 3.6609C5.06459 3.79226 4.11033 4.88284 4.09794 6.16923C4.09298 6.74923 4.09794 7.32922 4.09794 7.91169H4.10041C4.10041 8.53134 4.08554 9.15098 4.10289 9.77063C4.14503 11.2851 5.58757 12.4326 7.07473 12.1451L7.07225 12.1426ZM5.21082 9.62192C5.20835 9.04936 5.21082 8.47681 5.21082 7.90425C5.21082 7.33913 5.21082 6.77401 5.21082 6.20889C5.21578 5.38848 5.82056 4.75892 6.60875 4.75148C7.38207 4.74404 8.01659 5.35873 8.02651 6.16676C8.04138 7.33665 8.04386 8.50407 8.02651 9.67397C8.01411 10.4845 7.38207 11.0793 6.59388 11.0669C5.81064 11.0545 5.21578 10.4349 5.21082 9.62192Z" fill="white"/>
<path d="M11.6279 6.04276C11.7097 6.06011 11.7964 6.06507 11.8807 6.06507C13.3951 6.06507 14.9071 6.06507 16.4215 6.06507C16.5132 6.06507 16.6074 6.06011 16.6966 6.04029C16.8924 5.99815 17.0238 5.87422 17.0882 5.68337C17.2171 5.30662 16.9569 4.95714 16.5306 4.95218C15.7424 4.94475 14.9542 4.95218 14.1685 4.9497C13.7595 4.9497 13.3505 4.9497 12.9416 4.9497C12.5251 4.9497 12.1063 4.94227 11.6899 4.95962C11.4048 4.96953 11.2041 5.19508 11.1917 5.47269C11.1793 5.75773 11.3528 5.98576 11.6279 6.04276Z" fill="white"/>
<path d="M10.5819 15.1145C9.79369 15.1071 9.0055 15.1145 8.21978 15.1121C7.81082 15.1121 7.40185 15.1121 6.99288 15.1121C6.57648 15.1121 6.15759 15.1046 5.74119 15.122C5.45615 15.1319 5.25539 15.3574 5.24299 15.635C5.2306 15.9201 5.4041 16.1481 5.67923 16.2051C5.76102 16.2225 5.84777 16.2274 5.93204 16.2274C7.44646 16.2274 8.95841 16.2274 10.4728 16.2274C10.5645 16.2274 10.6587 16.2225 10.748 16.2026C10.9438 16.1605 11.0751 16.0366 11.1396 15.8457C11.2685 15.469 11.0082 15.1195 10.5819 15.1145Z" fill="white"/>
<path d="M11.8236 8.31071C12.2252 8.31071 12.6267 8.31071 13.0282 8.31071C13.4298 8.31071 13.8462 8.31071 14.2551 8.31071C14.6368 8.31071 14.8897 8.08763 14.8946 7.75798C14.8971 7.42833 14.6418 7.19782 14.2651 7.19534C13.4471 7.19286 12.6292 7.19286 11.8113 7.19534C11.4271 7.19534 11.1866 7.41841 11.1916 7.76046C11.1941 8.09755 11.437 8.30823 11.8261 8.31071H11.8236Z" fill="white"/>
<path d="M11.7345 9.60952C11.4222 9.60952 11.1842 9.85737 11.1892 10.1722C11.1941 10.4795 11.4544 10.7323 11.7568 10.7199C12.0517 10.7075 12.2971 10.4572 12.2971 10.1622C12.2971 9.85737 12.0443 9.60704 11.7345 9.60952Z" fill="white"/>
<path d="M19.081 15.5507C18.9125 15.5656 18.7166 15.6449 18.5952 15.7589C18.0697 16.2571 17.5641 16.7801 17.0163 17.3328C16.7933 17.0998 16.595 16.8817 16.3868 16.676C16.1017 16.391 15.7696 16.3711 15.5317 16.6165C15.2987 16.8569 15.321 17.1792 15.5961 17.4568C15.9431 17.8087 16.2926 18.1582 16.6445 18.5077C16.937 18.7977 17.1229 18.8002 17.4104 18.5126C17.7996 18.126 18.1862 17.7368 18.5729 17.3477C18.8579 17.0627 19.143 16.7826 19.423 16.4926C19.5866 16.324 19.6412 16.1233 19.5544 15.8952C19.4701 15.6796 19.3041 15.5309 19.0835 15.5507H19.081Z" fill="white"/>
</g>
<defs>
<clipPath id="clip0_779_281">
<rect width="23" height="23" fill="white"/>
</clipPath>
</defs>
</svg>
