<svg width="20" height="20" viewBox="0 0 20 20" fill="none" xmlns="http://www.w3.org/2000/svg">
<g clip-path="url(#clip0_4_16369)">
<path d="M0 8.25686C0 6.32182 0 4.38678 0 2.45376C0 0.970561 0.966509 0 2.4416 0C6.34005 0 10.2385 0 14.1349 0C15.2818 0 16.1936 0.694995 16.4448 1.77295C16.4955 1.9857 16.5076 2.21264 16.5076 2.4335C16.5117 5.04125 16.5117 7.649 16.5076 10.2588C16.5076 10.4128 16.5421 10.4918 16.692 10.5647C18.4751 11.4239 19.4821 13.3366 19.2147 15.3405C18.9614 17.2533 17.4276 18.8378 15.4966 19.1863C13.4582 19.5531 11.4421 18.5298 10.5485 16.6657C10.4796 16.5218 10.3925 16.5117 10.2669 16.5117C7.63076 16.5117 4.99262 16.5158 2.3565 16.5117C1.22587 16.5117 0.316091 15.8086 0.0648392 14.7428C0.0162098 14.5361 0.00202622 14.3173 0.00202622 14.1045C0 12.1553 0 10.2061 0 8.25686ZM10.4695 12.8463C10.352 12.8463 10.2669 12.8463 10.1818 12.8463C9.84542 12.8463 9.50704 12.8544 9.17272 12.8402C8.89918 12.828 8.72492 12.6376 8.72492 12.3863C8.72492 12.133 8.89512 11.9527 9.16664 11.9243C9.22337 11.9182 9.28213 11.9203 9.33887 11.9203C9.83327 11.9203 10.3277 11.9162 10.8221 11.9223C10.9558 11.9223 11.0409 11.8838 11.13 11.7784C12.0722 10.662 13.2758 10.0926 14.7388 10.0967C15.0204 10.0967 15.302 10.1352 15.5938 10.1575C15.5958 10.1068 15.6019 10.0643 15.6019 10.0217C15.6019 7.46461 15.606 4.90549 15.6019 2.34839C15.6019 1.4832 15.0042 0.913827 14.1208 0.911801C10.2162 0.911801 6.31169 0.911801 2.40715 0.911801C1.49535 0.911801 0.919906 1.4913 0.919906 2.40513C0.919906 6.30358 0.919906 10.2 0.919906 14.0985C0.919906 15.0245 1.49738 15.5958 2.42539 15.5958C4.93386 15.5958 7.44029 15.5958 9.94876 15.5958C10.0237 15.5958 10.0967 15.5898 10.1838 15.5857C10.0136 14.6354 10.1028 13.7378 10.4736 12.8442L10.4695 12.8463ZM14.6922 11.0085C12.6619 11.0085 11.0105 12.6497 11.0105 14.6597C11.0105 16.7001 12.6436 18.3414 14.6759 18.3475C16.6981 18.3535 18.3495 16.6981 18.3495 14.6638C18.3495 12.6659 16.69 11.0064 14.6901 11.0085H14.6922Z" fill="#474747" stroke="#474747" stroke-width="0.222222"/>
<path d="M3.88588 4.68727L4.1199 4.92854L4.38267 4.71895C4.76433 4.41453 5.13247 4.12025 5.49615 3.82953C5.6192 3.73117 5.74174 3.63321 5.86412 3.53541L5.86426 3.53529C5.91564 3.4942 5.96528 3.45414 6.01412 3.41472C6.11463 3.33362 6.21173 3.25526 6.3135 3.17626C6.38066 3.12448 6.42682 3.12017 6.44337 3.12126C6.45191 3.12182 6.45819 3.12385 6.46398 3.12703C6.4699 3.13028 6.48039 3.13758 6.49318 3.15437L6.49387 3.15528C6.51918 3.18831 6.51754 3.20691 6.51598 3.2161C6.51369 3.22946 6.50115 3.26941 6.4383 3.32009C5.7134 3.90122 4.98651 4.48233 4.25965 5.06139C4.17531 5.12824 4.13364 5.14264 4.12159 5.14554C4.11015 5.14137 4.07124 5.1228 3.99619 5.0489C3.73212 4.78886 3.47006 4.52681 3.21002 4.26274L3.21002 4.26273L3.20912 4.26182C3.1333 4.18536 3.12246 4.13411 3.12137 4.12013C3.12086 4.11346 3.12168 4.1091 3.12357 4.1043C3.12568 4.09897 3.1319 4.08641 3.14996 4.06853L3.14999 4.0685C3.17173 4.04697 3.18618 4.03991 3.19132 4.03785C3.1954 4.03622 3.19736 4.03604 3.20075 4.03633C3.20915 4.03704 3.26013 4.04607 3.34585 4.13109L3.34628 4.13152C3.46201 4.24593 3.57178 4.36045 3.6917 4.48555C3.75305 4.54955 3.81706 4.61633 3.88588 4.68727Z" fill="#474747" stroke="#474747" stroke-width="0.740741"/>
<path d="M9.22131 3.66346C10.5684 3.65536 11.9134 3.65738 13.2604 3.6594L13.2616 3.65941C13.5655 3.65941 13.7621 3.85595 13.7601 4.13152M9.22131 3.66346C9.10784 3.66548 8.97817 3.71006 8.88496 3.7749M9.22131 3.66346L9.22793 4.03377C9.22746 4.03378 9.22699 4.03379 9.22652 4.0338M9.22131 3.66346L9.22354 4.03382C9.22453 4.03382 9.22552 4.03381 9.22652 4.0338M8.88496 3.7749C8.70463 3.90053 8.66815 4.09707 8.7411 4.29361C8.81809 4.50231 8.99032 4.59957 9.21321 4.59957H10.863V4.59552V4.2292M8.88496 3.7749L9.09646 4.07894C9.13335 4.05328 9.19142 4.03489 9.22652 4.0338M8.88496 3.7749L9.09666 4.0788C9.0843 4.08741 9.0798 4.09337 9.07875 4.09487C9.07779 4.09622 9.07751 4.09689 9.07718 4.09821C9.07649 4.10095 9.0724 4.12184 9.08833 4.16475L9.08858 4.16542L9.08857 4.16542C9.10105 4.19924 9.11346 4.20748 9.11892 4.21089C9.12793 4.21653 9.15468 4.2292 9.21321 4.2292H9.21715H9.22109H9.22503H9.22898H9.23292H9.23686H9.2408H9.24474H9.24869H9.25263H9.25657H9.26051H9.26445H9.2684H9.27234H9.27628H9.28022H9.28417H9.28811H9.29205H9.29599H9.29994H9.30388H9.30782H9.31176H9.31571H9.31965H9.32359H9.32753H9.33148H9.33542H9.33936H9.34331H9.34725H9.35119H9.35514H9.35908H9.36302H9.36697H9.37091H9.37485H9.3788H9.38274H9.38668H9.39063H9.39457H9.39851H9.40246H9.4064H9.41034H9.41429H9.41823H9.42218H9.42612H9.43006H9.43401H9.43795H9.4419H9.44584H9.44978H9.45373H9.45767H9.46162H9.46556H9.4695H9.47345H9.47739H9.48134H9.48528H9.48923H9.49317H9.49712H9.50106H9.505H9.50895H9.51289H9.51684H9.52078H9.52473H9.52867H9.53262H9.53656H9.54051H9.54445H9.5484H9.55234H9.55629H9.56023H9.56418H9.56812H9.57207H9.57601H9.57996H9.5839H9.58785H9.59179H9.59574H9.59968H9.60363H9.60757H9.61152H9.61546H9.61941H9.62336H9.6273H9.63125H9.63519H9.63914H9.64308H9.64703H9.65097H9.65492H9.65887H9.66281H9.66676H9.6707H9.67465H9.6786H9.68254H9.68649H9.69043H9.69438H9.69832H9.70227H9.70622H9.71016H9.71411H9.71805H9.722H9.72595H9.72989H9.73384H9.73779H9.74173H9.74568H9.74962H9.75357H9.75752H9.76146H9.76541H9.76936H9.7733H9.77725H9.7812H9.78514H9.78909H9.79303H9.79698H9.80093H9.80487H9.80882H9.81277H9.81671H9.82066H9.82461H9.82855H9.8325H9.83645H9.84039H9.84434H9.84829H9.85223H9.85618H9.86013H9.86407H9.86802H9.87197H9.87591H9.87986H9.88381H9.88776H9.8917H9.89565H9.8996H9.90354H9.90749H9.91144H9.91538H9.91933H9.92328H9.92723H9.93117H9.93512H9.93907H9.94301H9.94696H9.95091H9.95486H9.9588H9.96275H9.9667H9.97064H9.97459H9.97854H9.98249H9.98643H9.99038H9.99433H9.99827H10.0022H10.0062H10.0101H10.0141H10.018H10.022H10.0259H10.0299H10.0338H10.0377H10.0417H10.0456H10.0496H10.0535H10.0575H10.0614H10.0654H10.0693H10.0733H10.0772H10.0812H10.0851H10.0891H10.093H10.097H10.1009H10.1049H10.1088H10.1127H10.1167H10.1206H10.1246H10.1285H10.1325H10.1364H10.1404H10.1443H10.1483H10.1522H10.1562H10.1601H10.1641H10.168H10.172H10.1759H10.1799H10.1838H10.1878H10.1917H10.1956H10.1996H10.2035H10.2075H10.2114H10.2154H10.2193H10.2233H10.2272H10.2312H10.2351H10.2391H10.243H10.247H10.2509H10.2549H10.2588H10.2628H10.2667H10.2707H10.2746H10.2785H10.2825H10.2864H10.2904H10.2943H10.2983H10.3022H10.3062H10.3101H10.3141H10.318H10.322H10.3259H10.3299H10.3338H10.3378H10.3417H10.3457H10.3496H10.3535H10.3575H10.3614H10.3654H10.3693H10.3733H10.3772H10.3812H10.3851H10.3891H10.393H10.397H10.4009H10.4049H10.4088H10.4128H10.4167H10.4207H10.4246H10.4286H10.4325H10.4364H10.4404H10.4443H10.4483H10.4522H10.4562H10.4601H10.4641H10.468H10.472H10.4759H10.4799H10.4838H10.4878H10.4917H10.4957H10.4996H10.5035H10.5075H10.5114H10.5154H10.5193H10.5233H10.5272H10.5312H10.5351H10.5391H10.543H10.547H10.5509H10.5549H10.5588H10.5628H10.5667H10.5706H10.5746H10.5785H10.5825H10.5864H10.5904H10.5943H10.5983H10.6022H10.6062H10.6101H10.6141H10.618H10.622H10.6259H10.6298H10.6338H10.6377H10.6417H10.6456H10.6496H10.6535H10.6575H10.6614H10.6654H10.6693H10.6733H10.6772H10.6812H10.6851H10.689H10.693H10.6969H10.7009H10.7048H10.7088H10.7127H10.7167H10.7206H10.7246H10.7285H10.7325H10.7364H10.7403H10.7443H10.7482H10.7522H10.7561H10.7601H10.764H10.768H10.7719H10.7759H10.7798H10.7837H10.7877H10.7916H10.7956H10.7995H10.8035H10.8074H10.8114H10.8153H10.8193H10.8232H10.8272H10.8311H10.835H10.839H10.8429H10.8469H10.8508H10.8548H10.8587H10.8627H10.863M10.863 4.2292H10.8666H10.8705H10.8745H10.8784H10.8824H10.8863H10.8903H10.8942H10.8982H10.9021H10.9061H10.91H10.9139H10.9179H10.9218H10.9258H10.9297H10.9337H10.9376H10.9416H10.9455H10.9494H10.9534H10.9573H10.9613H10.9652H10.9692H10.9731H10.9771H10.981H10.9849H10.9889H10.9928H10.9968H11.0007H11.0047H11.0086H11.0126H11.0165H11.0204H11.0244H11.0283H11.0323H11.0362H11.0402H11.0441H11.048H11.052H11.0559H11.0599H11.0638H11.0678H11.0717H11.0757H11.0796H11.0835H11.0875H11.0914H11.0954H11.0993H11.1033H11.1072H11.1111H11.1151H11.119H11.123H11.1269H11.1309H11.1348H11.1387H11.1427H11.1466H11.1506H11.1545H11.1585H11.1624H11.1663H11.1703H11.1742H11.1782H11.1821H11.1861H11.19H11.1939H11.1979H11.2018H11.2058H11.2097H11.2136H11.2176H11.2215H11.2255H11.2294H11.2334V4.59552H11.6037V4.59585C11.7046 4.59602 11.8055 4.59622 11.9064 4.59642C12.3555 4.59732 12.805 4.59822 13.2535 4.59552M10.863 4.2292V4.22515H11.2334C11.4591 4.22515 11.6843 4.2256 11.9091 4.22605C12.3574 4.22695 12.8041 4.22785 13.2513 4.22516L13.2535 4.59552M13.2535 4.59552C13.5595 4.59349 13.758 4.40506 13.7601 4.13152M13.2535 4.59552L13.251 4.22516C13.3285 4.22465 13.3604 4.20166 13.3692 4.19349C13.3758 4.18739 13.3894 4.17248 13.3897 4.12877M13.7601 4.13152L13.3897 4.12877M13.7601 4.13152L13.3897 4.12879C13.3897 4.12879 13.3897 4.12878 13.3897 4.12877M13.3897 4.12877C13.39 4.08284 13.3756 4.0656 13.3688 4.05902C13.3609 4.05148 13.3327 4.02978 13.2616 4.02978H13.261L13.2606 4.02977C11.9141 4.02775 10.5712 4.02573 9.22652 4.0338" fill="#474747" stroke="#474747" stroke-width="0.740741"/>
<path d="M13.2733 8.34447L13.2738 8.34447C13.3157 8.34447 13.3366 8.33623 13.3454 8.3315C13.352 8.32797 13.3635 8.32052 13.3776 8.29592C13.3909 8.27112 13.3922 8.25486 13.3919 8.24702C13.3916 8.23861 13.3891 8.23022 13.3831 8.22115C13.3725 8.20531 13.3338 8.16641 13.2383 8.1653C12.7915 8.16261 12.346 8.16351 11.8988 8.1644C11.6748 8.16485 11.4505 8.16531 11.2253 8.16531L13.2733 8.34447ZM13.2733 8.34447L13.2717 8.34448C11.9185 8.3465 10.5684 8.34852 9.2164 8.34447V8.34447M13.2733 8.34447L9.2164 8.34447M9.2164 8.34447H9.21529M9.2164 8.34447H9.21529M9.21529 8.34447C9.14369 8.34447 9.11729 8.32319 9.11159 8.31782M9.21529 8.34447L9.11159 8.31782M9.23082 8.16529L9.22984 8.1653C9.14488 8.16585 9.11461 8.19022 9.10933 8.19515C9.10927 8.1952 9.10921 8.19526 9.10914 8.19533C9.10626 8.19799 9.09295 8.21025 9.09328 8.25614L9.23082 8.16529ZM9.23082 8.16529C9.67301 8.16126 10.1124 8.1626 10.5548 8.16395M9.23082 8.16529L10.5548 8.16395M9.11159 8.31782C9.10708 8.31356 9.09362 8.29954 9.09328 8.25622L9.11159 8.31782ZM10.5548 8.16395C10.7766 8.16463 10.9992 8.1653 11.2233 8.16531L10.5548 8.16395Z" fill="#474747" stroke="#474747" stroke-width="0.740741"/>
<path d="M4.24415 9.19365L3.88805 8.82697C3.82555 8.76261 3.76588 8.70059 3.7079 8.64032C3.57081 8.49783 3.44314 8.36513 3.30968 8.23443C3.26037 8.18672 3.22333 8.17974 3.20941 8.1792C3.19831 8.17877 3.18156 8.18077 3.15797 8.2041L4.24415 9.19365ZM4.24415 9.19365C4.23177 9.20349 4.21938 9.21334 4.207 9.22319C4.17487 9.24872 4.15233 9.25978 4.1399 9.26438C4.13384 9.26662 4.13004 9.26739 4.12828 9.26767C4.12661 9.26793 4.12589 9.26788 4.12569 9.26787L4.12569 9.26787C4.12549 9.26786 4.12445 9.26779 4.12219 9.26715C4.11985 9.26648 4.11541 9.26497 4.10878 9.26159C4.09516 9.25464 4.07255 9.23991 4.04223 9.21019L4.04112 9.20911C3.75186 8.92788 3.4646 8.64061 3.18337 8.35136L4.24415 9.19365ZM3.12819 8.25642C3.12837 8.2637 3.13183 8.29829 3.1833 8.35128L3.12819 8.25642ZM3.12819 8.25642L3.12819 8.2564M3.12819 8.25642L3.12819 8.2564M3.12819 8.2564C3.12808 8.25181 3.12766 8.2341 3.15794 8.20413L3.12819 8.2564ZM4.52411 8.74509C5.10815 8.2785 5.67135 7.82792 6.23624 7.37563C6.26595 7.35215 6.28284 7.33797 6.29546 7.32737C6.31013 7.31505 6.31904 7.30756 6.33563 7.29595L6.33564 7.29598L6.3395 7.2932C6.39475 7.25347 6.43062 7.25199 6.4425 7.25305C6.45126 7.25383 6.46702 7.25685 6.48877 7.28348L6.48876 7.28348L6.48953 7.28442C6.51296 7.31293 6.51293 7.33143 6.51172 7.34081C6.5103 7.35178 6.50185 7.38487 6.45096 7.42641C5.81158 7.94416 5.16901 8.45761 4.52411 8.97092V8.74509Z" fill="#474747" stroke="#474747" stroke-width="0.740741"/>
<path d="M3.87214 12.3985L3.60449 12.6545C3.66297 12.7156 3.71769 12.7765 3.78059 12.8466C3.80885 12.878 3.83876 12.9113 3.8714 12.9473L3.87742 12.9539L3.88376 12.9602L3.88579 12.9623L4.12037 13.1969L4.37929 12.9894C4.51261 12.8826 4.64435 12.7769 4.77489 12.6722C5.28444 12.2634 5.7757 11.8693 6.27105 11.4801L6.27105 11.4801L6.27211 11.4792C6.33775 11.4273 6.40376 11.3941 6.45154 11.3819C6.45299 11.3825 6.45526 11.3836 6.45844 11.3855C6.47135 11.3935 6.48826 11.4106 6.49915 11.4358C6.51281 11.4691 6.50928 11.4839 6.50844 11.4872C6.50757 11.4906 6.50182 11.5119 6.46147 11.5451L6.69669 11.8312M3.87214 12.3985L3.60473 12.6548C3.51665 12.5628 3.42404 12.4721 3.32648 12.3766C3.26326 12.3159 3.21882 12.3068 3.20454 12.3058C3.19716 12.3054 3.19176 12.3063 3.18645 12.3084C3.18099 12.3104 3.17038 12.3157 3.15594 12.3295C3.13753 12.3477 3.13107 12.3604 3.12893 12.3656C3.12704 12.3702 3.12657 12.3734 3.12685 12.3778C3.12742 12.3869 3.13483 12.433 3.20626 12.5056L2.9421 12.7652M3.87214 12.3985C3.93476 12.464 3.99538 12.5314 4.06032 12.6037C4.08784 12.6343 4.11613 12.6658 4.14568 12.6984L2.89752 12.0642C3.09001 11.8778 3.3595 11.894 3.58441 12.1108L3.58443 12.1108C3.68168 12.206 3.77894 12.3012 3.87214 12.3985ZM2.9421 12.7652L3.20597 12.5053C3.46948 12.7729 3.73725 13.0386 4.00678 13.3061C4.07553 13.3737 4.11126 13.3884 4.12071 13.3912C4.13017 13.3895 4.17017 13.3786 4.2532 13.3125L4.255 13.311L4.25501 13.311C4.59571 13.0429 4.93465 12.7705 5.2753 12.4968L5.27665 12.4957L5.27665 12.4957C5.32791 12.4549 5.37914 12.4142 5.43033 12.3735C5.77687 12.0978 6.12168 11.8236 6.46192 11.5447L6.69669 11.8312M2.9421 12.7652C3.20754 13.0347 3.47702 13.3022 3.74651 13.5697C3.99574 13.8148 4.20444 13.825 4.48406 13.6021C4.82649 13.3326 5.16689 13.059 5.5073 12.7855M2.9421 12.7652L6.37858 11.0186C6.57309 10.9781 6.76153 11.1058 6.84055 11.2922C6.9216 11.4867 6.87905 11.6812 6.69669 11.8312M6.69669 11.8312C6.35419 12.1119 6.00707 12.388 5.6607 12.6635C5.60954 12.7042 5.55841 12.7448 5.5073 12.7855M5.5073 12.7855L5.50729 12.7855L5.5073 12.7855ZM4.11846 13.3914C4.11847 13.3914 4.11877 13.3914 4.11935 13.3914L4.11846 13.3914ZM4.12192 13.3915C4.12283 13.3916 4.12329 13.3917 4.1233 13.3917L4.12192 13.3915Z" fill="#474747" stroke="#474747" stroke-width="0.740741"/>
<path d="M16.8217 13.4359L16.5672 13.705C16.5954 13.7317 16.5991 13.7725 16.583 13.8002L16.5818 13.8022C16.569 13.8244 16.5453 13.853 16.4903 13.9101C15.7884 14.614 15.0865 15.316 14.3844 16.0181L14.3836 16.0188C14.2879 16.1146 14.2379 16.1397 14.2222 16.1459C14.2082 16.1403 14.1689 16.1203 14.0968 16.0524L14.4758 15.6734L16.3359 13.8133C16.4063 13.7429 16.4377 13.7119 16.4699 13.6907L16.4699 13.6907L16.472 13.6894C16.4782 13.6852 16.4919 13.6796 16.5138 13.6819C16.5363 13.6843 16.5555 13.6939 16.5673 13.7051L16.8217 13.4359ZM16.8217 13.4359C16.6738 13.2961 16.4367 13.2677 16.2665 13.3812M16.8217 13.4359C16.9716 13.5777 17.0081 13.8067 16.9028 13.987C16.8643 14.0539 16.8095 14.1127 16.7548 14.1694C16.0521 14.8742 15.3493 15.577 14.6465 16.2797L14.6455 16.2807C14.3315 16.5948 14.1167 16.5968 13.8067 16.2868L16.2665 13.3812M16.2665 13.3812C16.2007 13.4245 16.1435 13.4817 16.087 13.5384C16.0827 13.5427 16.0784 13.5471 16.074 13.5514L14.4769 15.1486L16.2665 13.3812ZM13.6744 15.3891C13.7302 15.446 13.7865 15.5034 13.8436 15.5613V15.8008C13.4979 15.4562 13.1534 15.1114 12.8089 14.7652L12.8089 14.7652L12.8083 14.7646C12.7675 14.7238 12.762 14.7007 12.7613 14.697C12.7613 14.6969 12.7613 14.6969 12.7612 14.6969C12.7609 14.6953 12.7571 14.6794 12.7762 14.6391C12.7842 14.6232 12.7977 14.6103 12.8115 14.6033C12.8222 14.5978 12.8283 14.5981 12.8309 14.5985C12.8696 14.6099 12.9266 14.6424 12.9749 14.688C13.2094 14.9153 13.4373 15.1475 13.6744 15.3891Z" fill="#474747" stroke="#474747" stroke-width="0.740741"/>
</g>
<defs>
<clipPath id="clip0_4_16369">
<rect width="20" height="20" fill="white"/>
</clipPath>
</defs>
</svg>
