<svg width="24" height="20" viewBox="0 0 24 20" fill="none" xmlns="http://www.w3.org/2000/svg">
<g clip-path="url(#clip0_4_16508)">
<path d="M0 11.9729C0.0334932 11.8375 0.0669864 11.7002 0.104201 11.5667C0.459601 10.2681 1.65233 9.34054 3.00322 9.33312C3.55586 9.32941 4.11966 9.309 4.66114 9.39248C5.57662 9.53533 6.26695 10.0548 6.7433 10.8487C6.78424 10.9174 6.82331 10.9897 6.85867 11.0528C7.18988 10.7857 7.49876 10.5056 7.83927 10.2681C8.72312 9.65405 9.71489 9.33683 10.7904 9.33497C11.5533 9.33497 12.3236 9.32755 13.0772 9.42588C14.2104 9.57243 15.1687 10.1197 15.9837 10.9155C16.0358 10.9656 16.0898 11.0157 16.1568 11.0806C16.4098 10.5835 16.741 10.1791 17.1876 9.87296C17.6956 9.5242 18.2575 9.32755 18.8716 9.33497C19.4763 9.34054 20.0959 9.31271 20.6821 9.42959C22.0423 9.69858 23.0154 10.9341 23.0229 12.3161C23.0322 13.9375 23.0284 15.5589 23.0229 17.1803C23.021 17.9761 22.4274 18.5623 21.6236 18.5642C20.3639 18.5679 19.1042 18.5642 17.8463 18.5642C17.7644 18.5642 17.6826 18.5642 17.5895 18.5642C17.5672 18.6681 17.5504 18.7627 17.5244 18.8536C17.3402 19.5121 16.7392 19.9926 16.0488 19.9945C13.0289 20 10.007 20 6.98706 19.9945C6.25021 19.9945 5.63988 19.475 5.47986 18.7534C5.46684 18.6959 5.45195 18.6384 5.43334 18.5623H1.63745C0.671725 18.5623 0.359122 18.3564 0 17.4864C0 15.6498 0 13.8114 0 11.9729ZM11.5049 18.6551C12.9656 18.6551 14.4263 18.6551 15.8869 18.6551C16.1623 18.6551 16.2349 18.592 16.2349 18.3416C16.2349 17.1023 16.2498 15.8613 16.2293 14.6221C16.2014 12.7725 14.8021 11.0936 12.9712 10.7745C12.2995 10.6577 11.5998 10.6781 10.9132 10.6781C8.60217 10.6781 6.79726 12.4831 6.78982 14.7834C6.7861 15.9485 6.78982 17.1135 6.78982 18.2785C6.78982 18.605 6.8382 18.6551 7.16569 18.6551C8.61148 18.6551 10.0573 18.6551 11.5031 18.6551H11.5049ZM5.44079 17.2155C5.44079 17.1153 5.44079 17.0337 5.44079 16.9539C5.44079 16.1841 5.41474 15.4142 5.45381 14.6462C5.47986 14.1434 5.60453 13.6463 5.68268 13.1472C5.72548 12.8782 5.79433 12.6074 5.79433 12.3384C5.79433 11.5314 5.22308 10.8413 4.42296 10.7189C3.99686 10.654 3.55772 10.6762 3.12417 10.6762C2.071 10.6762 1.34903 11.3997 1.34903 12.4534C1.34903 13.9616 1.34903 15.4717 1.34903 16.9799C1.34903 17.0578 1.34903 17.1357 1.34903 17.2174H5.44079V17.2155ZM21.6645 17.2099C21.6701 17.1617 21.6757 17.1394 21.6757 17.119C21.6757 15.5125 21.6831 13.9078 21.672 12.3013C21.6664 11.5314 21.0933 10.8265 20.3304 10.7282C19.7647 10.6558 19.1804 10.6855 18.6092 10.717C18.2408 10.7374 17.93 10.9434 17.6807 11.2179C17.2062 11.7411 17.1374 12.3532 17.2955 13.0137C17.3867 13.3903 17.5151 13.7668 17.5337 14.1471C17.5802 15.0858 17.5709 16.0282 17.5858 16.9688C17.5858 17.0485 17.5858 17.1265 17.5858 17.2099H21.6645Z" fill="#474747"/>
<path d="M11.5198 1.47877e-06C13.6801 0.00185659 15.4348 1.76051 15.4273 3.91615C15.4218 6.05881 13.6615 7.80262 11.5086 7.80076C9.35018 7.79891 7.59551 6.0384 7.60109 3.88276C7.60667 1.74195 9.36692 -0.00185364 11.5198 1.47877e-06ZM11.5161 1.34496C10.1075 1.34496 8.9557 2.48957 8.95012 3.89203C8.9464 5.2945 10.0963 6.45024 11.4993 6.4558C12.9172 6.46137 14.0783 5.30934 14.0764 3.89574C14.0764 2.49328 12.9228 1.34496 11.5161 1.34496Z" fill="#474747"/>
<path d="M3.59865 2.86987C4.95884 2.86987 6.07156 3.97923 6.07156 5.33532C6.07156 6.69141 4.95884 7.80077 3.59865 7.80077C2.24031 7.80077 1.12573 6.68956 1.12573 5.33532C1.12573 3.97923 2.23845 2.86987 3.59865 2.86987ZM4.72253 5.32976C4.72067 4.712 4.20897 4.20927 3.58748 4.21483C2.97716 4.2204 2.47663 4.71942 2.47476 5.32976C2.4729 5.94936 2.97902 6.45581 3.59865 6.45581C4.21827 6.45581 4.72439 5.94936 4.72253 5.32976Z" fill="#474747"/>
<path d="M19.4317 2.86988C20.7919 2.86988 21.9046 3.97923 21.9027 5.33718C21.9027 6.69327 20.7882 7.80263 19.428 7.80077C18.0696 7.80077 16.9551 6.6877 16.9569 5.33347C16.9569 3.97738 18.0715 2.86802 19.4317 2.86988ZM20.5537 5.34089C20.5556 4.72128 20.0495 4.21483 19.4298 4.21483C18.8176 4.21483 18.3134 4.71015 18.3078 5.31863C18.3004 5.93824 18.8009 6.45025 19.4205 6.45581C20.042 6.46138 20.5519 5.95679 20.5556 5.34089H20.5537Z" fill="#474747"/>
</g>
<defs>
<clipPath id="clip0_4_16508">
<rect width="23.0303" height="20" fill="white"/>
</clipPath>
</defs>
</svg>
